<svg width="87" height="72" viewBox="0 0 87 72" fill="none" xmlns="http://www.w3.org/2000/svg">
<path d="M86.8062 71.2146H0.306152V0.196838H86.8062V71.2146ZM1.33436 70.3704H85.7775V1.04102H1.33436V70.3704Z" fill="white"/>
<path d="M33.7762 18.8718C33.5362 18.8718 33.2602 18.8598 32.9482 18.8358C32.8282 18.8278 32.6802 18.8198 32.5042 18.8118C32.3282 18.8038 32.1322 18.7998 31.9162 18.7998L31.0762 18.8118C30.9242 18.8198 30.7162 18.8238 30.4522 18.8238C30.4362 18.8238 30.4282 18.7998 30.4282 18.7518C30.4282 18.7038 30.4362 18.6798 30.4522 18.6798C30.7402 18.6798 30.9522 18.6598 31.0882 18.6198C31.2242 18.5798 31.3162 18.5038 31.3642 18.3918C31.4122 18.2718 31.4362 18.0918 31.4362 17.8518V12.2958C31.4362 12.0558 31.4122 11.8798 31.3642 11.7678C31.3162 11.6558 31.2242 11.5798 31.0882 11.5398C30.9602 11.4918 30.7562 11.4678 30.4762 11.4678C30.4522 11.4678 30.4402 11.4438 30.4402 11.3958C30.4402 11.3478 30.4522 11.3238 30.4762 11.3238L31.0762 11.3358C31.4282 11.3518 31.7082 11.3598 31.9162 11.3598C32.2202 11.3598 32.5282 11.3478 32.8402 11.3238C33.2242 11.3078 33.4802 11.2998 33.6082 11.2998C34.4322 11.2998 35.1642 11.4598 35.8042 11.7798C36.4442 12.0998 36.9402 12.5358 37.2922 13.0878C37.6442 13.6398 37.8202 14.2598 37.8202 14.9478C37.8202 15.7238 37.6362 16.4118 37.2682 17.0118C36.9082 17.6038 36.4202 18.0638 35.8042 18.3918C35.1882 18.7118 34.5122 18.8718 33.7762 18.8718ZM33.6562 18.6558C34.2562 18.6558 34.7842 18.5238 35.2402 18.2598C35.7042 17.9878 36.0642 17.5958 36.3202 17.0838C36.5842 16.5638 36.7162 15.9398 36.7162 15.2118C36.7162 14.5158 36.5922 13.8878 36.3442 13.3278C36.1042 12.7598 35.7562 12.3158 35.3002 11.9958C34.8522 11.6678 34.3282 11.5038 33.7282 11.5038C33.3842 11.5038 33.1202 11.5238 32.9362 11.5638C32.7522 11.6038 32.6162 11.6838 32.5282 11.8038C32.4402 11.9158 32.3962 12.0878 32.3962 12.3198V17.7198C32.3962 18.0638 32.4802 18.3078 32.6482 18.4518C32.8242 18.5878 33.1602 18.6558 33.6562 18.6558ZM40.9076 17.8518C40.9076 18.0918 40.9316 18.2718 40.9796 18.3918C41.0276 18.5038 41.1156 18.5798 41.2436 18.6198C41.3796 18.6598 41.5916 18.6798 41.8796 18.6798C41.8956 18.6798 41.9036 18.7038 41.9036 18.7518C41.9036 18.7998 41.8956 18.8238 41.8796 18.8238C41.6236 18.8238 41.4236 18.8198 41.2796 18.8118L40.4156 18.7998L39.5756 18.8118C39.4236 18.8198 39.2156 18.8238 38.9516 18.8238C38.9356 18.8238 38.9276 18.7998 38.9276 18.7518C38.9276 18.7038 38.9356 18.6798 38.9516 18.6798C39.2396 18.6798 39.4516 18.6598 39.5876 18.6198C39.7236 18.5798 39.8156 18.5038 39.8636 18.3918C39.9116 18.2718 39.9356 18.0918 39.9356 17.8518V12.2958C39.9356 12.0558 39.9116 11.8798 39.8636 11.7678C39.8156 11.6558 39.7236 11.5798 39.5876 11.5398C39.4516 11.4918 39.2396 11.4678 38.9516 11.4678C38.9356 11.4678 38.9276 11.4438 38.9276 11.3958C38.9276 11.3478 38.9356 11.3238 38.9516 11.3238L39.5756 11.3358C39.9276 11.3518 40.2076 11.3598 40.4156 11.3598C40.6476 11.3598 40.9396 11.3518 41.2916 11.3358L41.8796 11.3238C41.8956 11.3238 41.9036 11.3478 41.9036 11.3958C41.9036 11.4438 41.8956 11.4678 41.8796 11.4678C41.5996 11.4678 41.3916 11.4918 41.2556 11.5398C41.1196 11.5878 41.0276 11.6718 40.9796 11.7918C40.9316 11.9038 40.9076 12.0798 40.9076 12.3198V17.8518ZM50.9512 11.3238C50.9752 11.3238 50.9872 11.3478 50.9872 11.3958C50.9872 11.4438 50.9752 11.4678 50.9512 11.4678C50.2952 11.4678 49.9672 11.8838 49.9672 12.7158V18.9798C49.9672 18.9958 49.9472 19.0078 49.9072 19.0158C49.8752 19.0238 49.8512 19.0198 49.8352 19.0038L44.2072 12.3318V17.4438C44.2072 17.8678 44.2832 18.1798 44.4352 18.3798C44.5952 18.5798 44.8352 18.6798 45.1552 18.6798C45.1792 18.6798 45.1912 18.7038 45.1912 18.7518C45.1912 18.7998 45.1792 18.8238 45.1552 18.8238C44.9472 18.8238 44.7872 18.8198 44.6752 18.8118L44.0632 18.7998L43.4152 18.8118C43.2952 18.8198 43.1192 18.8238 42.8872 18.8238C42.8712 18.8238 42.8632 18.7998 42.8632 18.7518C42.8632 18.7038 42.8712 18.6798 42.8872 18.6798C43.2312 18.6798 43.4832 18.5798 43.6432 18.3798C43.8112 18.1798 43.8952 17.8678 43.8952 17.4438V11.9958C43.5432 11.6438 43.1952 11.4678 42.8512 11.4678C42.8272 11.4678 42.8152 11.4438 42.8152 11.3958C42.8152 11.3478 42.8272 11.3238 42.8512 11.3238L43.3192 11.3358C43.4152 11.3438 43.5512 11.3478 43.7272 11.3478L44.3512 11.3358C44.4232 11.3278 44.5152 11.3238 44.6272 11.3238C44.6912 11.3238 44.7352 11.3398 44.7592 11.3718C44.7912 11.3958 44.8392 11.4558 44.9032 11.5518C44.9752 11.6638 45.0752 11.7958 45.2032 11.9478L49.6672 17.3358V12.7158C49.6672 12.2918 49.5912 11.9798 49.4392 11.7798C49.2872 11.5718 49.0512 11.4678 48.7312 11.4678C48.7152 11.4678 48.7072 11.4438 48.7072 11.3958C48.7072 11.3478 48.7152 11.3238 48.7312 11.3238L49.2112 11.3358C49.4512 11.3518 49.6552 11.3598 49.8232 11.3598C49.9672 11.3598 50.1752 11.3518 50.4472 11.3358L50.9512 11.3238ZM56.9808 16.9998C56.9808 16.9838 56.9968 16.9758 57.0288 16.9758C57.0528 16.9758 57.0728 16.9838 57.0888 16.9998C57.1128 17.0078 57.1248 17.0158 57.1248 17.0238C57.0448 17.5998 57.0048 18.1398 57.0048 18.6438C57.0048 18.7078 56.9928 18.7558 56.9688 18.7878C56.9448 18.8118 56.8968 18.8238 56.8248 18.8238H51.7128C51.6888 18.8238 51.6768 18.7998 51.6768 18.7518C51.6768 18.7038 51.6888 18.6798 51.7128 18.6798C52.0008 18.6798 52.2088 18.6598 52.3368 18.6198C52.4648 18.5798 52.5528 18.5038 52.6008 18.3918C52.6488 18.2718 52.6728 18.0918 52.6728 17.8518V12.2958C52.6728 12.0558 52.6488 11.8798 52.6008 11.7678C52.5528 11.6558 52.4608 11.5798 52.3248 11.5398C52.1968 11.4918 51.9928 11.4678 51.7128 11.4678C51.6888 11.4678 51.6768 11.4438 51.6768 11.3958C51.6768 11.3478 51.6888 11.3238 51.7128 11.3238H56.6088C56.6888 11.3238 56.7288 11.3598 56.7288 11.4318L56.7528 12.9438C56.7528 12.9678 56.7288 12.9838 56.6808 12.9918C56.6408 12.9918 56.6168 12.9798 56.6088 12.9558C56.5528 12.5158 56.3968 12.1838 56.1408 11.9598C55.8848 11.7278 55.5488 11.6118 55.1328 11.6118H54.5208C54.1688 11.6118 53.9328 11.6638 53.8128 11.7678C53.6928 11.8638 53.6328 12.0558 53.6328 12.3438V14.7798H54.9528C55.3608 14.7798 55.6608 14.7118 55.8528 14.5758C56.0448 14.4318 56.1408 14.2118 56.1408 13.9158C56.1408 13.8998 56.1608 13.8918 56.2008 13.8918C56.2488 13.8918 56.2728 13.8998 56.2728 13.9158L56.2608 14.9238L56.2728 15.4638C56.2888 15.7198 56.2968 15.9198 56.2968 16.0638C56.2968 16.0798 56.2728 16.0878 56.2248 16.0878C56.1768 16.0878 56.1528 16.0798 56.1528 16.0638C56.1528 15.7198 56.0528 15.4678 55.8528 15.3078C55.6608 15.1398 55.3488 15.0558 54.9168 15.0558H53.6328V17.8038C53.6328 18.0918 53.6848 18.2878 53.7888 18.3918C53.9008 18.4958 54.1208 18.5478 54.4488 18.5478H55.2288C55.6848 18.5478 56.0608 18.4158 56.3568 18.1518C56.6608 17.8798 56.8688 17.4958 56.9808 16.9998Z" fill="white"/>
<path d="M43.6671 26.9026C33.582 26.8301 25.3883 35.1836 25.3916 45.3967C25.3792 55.528 33.4183 63.8461 43.4042 63.911C53.487 63.9768 61.6128 55.6756 61.6682 45.5257C61.7244 35.1937 53.5374 26.9743 43.6671 26.9026ZM43.5456 62.931C34.0367 62.9353 26.3432 55.0245 26.3589 45.4473C26.3746 35.6829 34.0606 27.8624 43.5911 27.891C53.0099 27.8944 60.7447 35.7959 60.7067 45.4777C60.6695 55.103 52.9496 62.9277 43.5456 62.931Z" fill="white"/>
<path d="M25.302 27.4086V39.8035H23.1129V63.4075H22.1564V39.8145H20.0557V27.4078H20.9832V38.7906H22.1382V27.4171H23.0939V38.7873H24.3397V27.4086H25.302Z" fill="white"/>
<path d="M67.0463 31.66C67.0446 31.084 67.0017 30.5046 66.9281 29.9336C66.714 28.2849 65.8046 27.4744 64.0527 27.471V63.4016H64.9993V62.9571C64.9993 58.0707 65.001 53.1843 64.9952 48.2978C64.9952 48.0558 65.044 47.9225 65.2846 47.8002C65.9724 47.4477 66.4486 46.8844 66.6784 46.1203C67.0025 45.0425 67.043 43.9292 67.0471 42.8185C67.0603 39.0984 67.057 35.3792 67.0463 31.66ZM66.0567 43.4763C66.0476 44.2151 65.9145 44.9547 65.7996 45.6876C65.726 46.1599 65.4425 46.5192 65.0068 46.8338V28.6281C65.4053 28.7335 65.6872 28.9595 65.7806 29.3365C65.9071 29.8409 66.041 30.3595 66.0534 30.874C66.0906 32.4806 66.0757 34.0889 66.0757 35.6963C66.0757 38.2897 66.0906 40.883 66.0567 43.4763Z" fill="white"/>
</svg>
