<svg width="56" height="49" viewBox="0 0 56 49" fill="none" xmlns="http://www.w3.org/2000/svg">
<path d="M55.1372 48.9118H0.555176V0.0513306H55.1372V48.9118ZM1.20398 48.331H54.4881V0.632128H1.20398V48.331Z" fill="white"/>
<path fill-rule="evenodd" clip-rule="evenodd" d="M39.195 13.4501C36.423 10.6781 32.7271 9.19977 28.8463 9.19977C20.7152 9.19977 14.0625 15.8525 14.0625 23.9836C14.0625 26.5707 14.8017 29.1579 16.0953 31.3755L14.0625 38.7674L21.824 36.7346C24.0416 37.8434 26.4439 38.5826 28.8463 38.5826C36.9774 38.5826 43.6301 31.9299 43.6301 23.7988C43.6301 19.918 41.967 16.2221 39.195 13.4501ZM35.499 26.9403C35.1294 26.7555 33.2815 25.8316 32.9119 25.8316C32.5423 25.6468 32.3574 25.6468 32.1726 26.0164C31.9879 26.386 31.2487 27.1251 31.0639 27.4947C30.8791 27.6795 30.6943 27.6795 30.3247 27.6795C29.9551 27.4947 28.8463 27.1251 27.368 25.8316C26.2592 24.9076 25.52 23.614 25.3352 23.2444C25.1504 22.8748 25.3352 22.69 25.52 22.5052C25.7048 22.3204 25.8896 22.1356 26.0743 21.9508C26.2591 21.766 26.2592 21.5812 26.444 21.3964C26.6288 21.2116 26.444 21.0268 26.444 20.842C26.444 20.6572 25.7048 18.8092 25.3352 18.0701C25.1504 17.5157 24.7808 17.5157 24.596 17.5157C24.4112 17.5157 24.2263 17.5157 23.8568 17.5157C23.672 17.5157 23.3024 17.5157 22.9328 17.8853C22.5632 18.2549 21.6392 19.1788 21.6392 21.0268C21.6392 22.8748 22.9328 24.538 23.1176 24.9076C23.3024 25.0924 25.7047 28.9731 29.4007 30.4515C32.5422 31.7451 33.0967 31.3755 33.8359 31.3755C34.5751 31.3755 36.0534 30.4515 36.2382 29.7123C36.6078 28.7883 36.6078 28.0491 36.423 28.0491C36.2382 27.1251 35.8686 27.1251 35.499 26.9403Z" stroke="white"/>
</svg>
