<svg width="55" height="49" viewBox="0 0 55 49" fill="none" xmlns="http://www.w3.org/2000/svg">
<path d="M54.5971 48.9118H0.0151367V0.0513306H54.5971V48.9118ZM0.663945 48.331H53.9481V0.632128H0.663945V48.331Z" fill="white"/>
<path d="M34.4011 9.19952H19.6171C15.5346 9.19952 12.2251 12.509 12.2251 16.5915V31.3755C12.2251 35.458 15.5346 38.7675 19.6171 38.7675H34.4011C38.4836 38.7675 41.7931 35.458 41.7931 31.3755V16.5915C41.7931 12.509 38.4836 9.19952 34.4011 9.19952Z" stroke="white" stroke-linecap="round" stroke-linejoin="round"/>
<path d="M32.9224 23.0521C33.1049 24.2825 32.8947 25.5391 32.3218 26.6432C31.7489 27.7472 30.8425 28.6426 29.7315 29.2018C28.6204 29.761 27.3613 29.9556 26.1333 29.758C24.9052 29.5604 23.7708 28.9806 22.8912 28.1011C22.0117 27.2216 21.4319 26.0871 21.2343 24.859C21.0367 23.631 21.2313 22.3719 21.7906 21.2609C22.3498 20.1498 23.2451 19.2434 24.3492 18.6705C25.4532 18.0976 26.7098 17.8875 27.9402 18.0699C29.1953 18.256 30.3572 18.8409 31.2543 19.738C32.1515 20.6352 32.7363 21.7971 32.9224 23.0521Z" stroke="white" stroke-linecap="round" stroke-linejoin="round"/>
<path d="M35.8713 15.7439C35.8941 15.8977 35.8678 16.0548 35.7962 16.1928C35.7246 16.3308 35.6113 16.4427 35.4724 16.5126C35.3335 16.5825 35.1761 16.6068 35.0226 16.5821C34.8691 16.5574 34.7273 16.485 34.6174 16.375C34.5074 16.2651 34.435 16.1233 34.4103 15.9698C34.3856 15.8163 34.4099 15.6589 34.4798 15.52C34.5497 15.3811 34.6616 15.2678 34.7996 15.1962C34.9376 15.1246 35.0947 15.0983 35.2485 15.1211C35.4054 15.1444 35.5506 15.2175 35.6628 15.3296C35.7749 15.4418 35.848 15.587 35.8713 15.7439Z" stroke="white" stroke-linecap="round" stroke-linejoin="round"/>
</svg>
