<svg width="89" height="72" viewBox="0 0 89 72" fill="none" xmlns="http://www.w3.org/2000/svg">
<path d="M88.0469 71.2146H0.046875V0.196838H88.0469V71.2146ZM1.09292 70.3704H87.0004V1.04102H1.09292V70.3704Z" fill="white"/>
<path d="M32.8949 10.9517C32.8949 11.2557 32.9709 11.5237 33.1229 11.7557C33.2749 11.9797 33.4589 12.1757 33.6749 12.3437C33.8909 12.5037 34.1909 12.6997 34.5749 12.9317C34.9749 13.1797 35.2909 13.3957 35.5229 13.5797C35.7629 13.7557 35.9669 13.9757 36.1349 14.2397C36.3029 14.5037 36.3869 14.8157 36.3869 15.1757C36.3869 15.5677 36.2829 15.9237 36.0749 16.2437C35.8749 16.5557 35.5829 16.8037 35.1989 16.9877C34.8229 17.1637 34.3829 17.2517 33.8789 17.2517C33.5589 17.2517 33.2429 17.2117 32.9309 17.1317C32.6189 17.0597 32.3469 16.9517 32.1149 16.8077C32.0749 16.7837 32.0469 16.7557 32.0309 16.7237C32.0149 16.6917 32.0069 16.6437 32.0069 16.5797L31.8869 14.8637C31.8789 14.8317 31.8949 14.8117 31.9349 14.8037C31.9829 14.7957 32.0109 14.8077 32.0189 14.8397C32.2109 15.4477 32.4789 15.9637 32.8229 16.3877C33.1669 16.8117 33.6149 17.0237 34.1669 17.0237C34.5429 17.0237 34.8549 16.9237 35.1029 16.7237C35.3589 16.5157 35.4869 16.1797 35.4869 15.7157C35.4869 15.3637 35.4069 15.0557 35.2469 14.7917C35.0869 14.5277 34.8909 14.3077 34.6589 14.1317C34.4349 13.9477 34.1309 13.7397 33.7469 13.5077C33.3709 13.2677 33.0709 13.0637 32.8469 12.8957C32.6309 12.7197 32.4469 12.5077 32.2949 12.2597C32.1429 12.0037 32.0669 11.7077 32.0669 11.3717C32.0669 10.9637 32.1749 10.6157 32.3909 10.3277C32.6149 10.0397 32.9029 9.82773 33.2549 9.69173C33.6149 9.54773 33.9909 9.47573 34.3829 9.47573C34.9189 9.47573 35.4029 9.56773 35.8349 9.75173C35.9549 9.79973 36.0149 9.87173 36.0149 9.96773L36.0749 11.4677C36.0749 11.4997 36.0549 11.5197 36.0149 11.5277C35.9749 11.5357 35.9509 11.5237 35.9429 11.4917C35.8549 11.0597 35.6669 10.6517 35.3789 10.2677C35.0909 9.87573 34.6829 9.67973 34.1549 9.67973C33.7549 9.67973 33.4429 9.79973 33.2189 10.0397C33.0029 10.2797 32.8949 10.5837 32.8949 10.9517ZM39.4232 9.84773C38.9272 9.84773 38.5392 9.98773 38.2592 10.2677C37.9792 10.5397 37.7712 10.9797 37.6352 11.5877C37.6272 11.6037 37.5992 11.6117 37.5512 11.6117C37.5112 11.6117 37.4912 11.6037 37.4912 11.5877C37.5232 11.3557 37.5592 10.9877 37.5992 10.4837C37.6392 9.97973 37.6592 9.59973 37.6592 9.34373C37.6592 9.30373 37.6832 9.28373 37.7312 9.28373C37.7792 9.28373 37.8032 9.30373 37.8032 9.34373C37.8032 9.51973 38.0232 9.60773 38.4632 9.60773C39.1432 9.63173 39.9472 9.64373 40.8752 9.64373C41.3472 9.64373 41.8472 9.63573 42.3752 9.61973L43.1912 9.60773C43.4872 9.60773 43.7032 9.58773 43.8392 9.54773C43.9752 9.50773 44.0632 9.42773 44.1032 9.30773C44.1112 9.27573 44.1352 9.25973 44.1752 9.25973C44.2232 9.25973 44.2472 9.27573 44.2472 9.30773C44.2232 9.53173 44.1952 9.89173 44.1632 10.3877C44.1392 10.8837 44.1272 11.2837 44.1272 11.5877C44.1272 11.6037 44.1032 11.6117 44.0552 11.6117C44.0152 11.6117 43.9952 11.6037 43.9952 11.5877C43.9392 10.9717 43.7792 10.5277 43.5152 10.2557C43.2512 9.98373 42.8592 9.84773 42.3392 9.84773C42.0432 9.84773 41.8312 9.86773 41.7032 9.90773C41.5752 9.93973 41.4872 10.0077 41.4392 10.1117C41.3912 10.2077 41.3672 10.3717 41.3672 10.6037V16.1357C41.3672 16.3837 41.3912 16.5637 41.4392 16.6757C41.4952 16.7877 41.5992 16.8637 41.7512 16.9037C41.9032 16.9437 42.1472 16.9637 42.4832 16.9637C42.4992 16.9637 42.5072 16.9877 42.5072 17.0357C42.5072 17.0837 42.4992 17.1077 42.4832 17.1077C42.2032 17.1077 41.9832 17.1037 41.8232 17.0957L40.8752 17.0837L39.9512 17.0957C39.7912 17.1037 39.5672 17.1077 39.2792 17.1077C39.2552 17.1077 39.2432 17.0837 39.2432 17.0357C39.2432 16.9877 39.2552 16.9637 39.2792 16.9637C39.6072 16.9637 39.8472 16.9437 39.9992 16.9037C40.1512 16.8637 40.2552 16.7877 40.3112 16.6757C40.3672 16.5557 40.3952 16.3757 40.3952 16.1357V10.5797C40.3952 10.3557 40.3712 10.1957 40.3232 10.0997C40.2752 9.99573 40.1872 9.92773 40.0592 9.89573C39.9312 9.86373 39.7192 9.84773 39.4232 9.84773ZM52.292 16.9637C52.324 16.9637 52.34 16.9877 52.34 17.0357C52.34 17.0837 52.324 17.1077 52.292 17.1077C52.14 17.1077 51.896 17.0997 51.56 17.0837C51.24 17.0677 51.004 17.0597 50.852 17.0597C50.668 17.0597 50.44 17.0677 50.168 17.0837C49.896 17.0997 49.692 17.1077 49.556 17.1077C49.524 17.1077 49.508 17.0837 49.508 17.0357C49.508 16.9877 49.524 16.9637 49.556 16.9637C49.828 16.9637 50.024 16.9397 50.144 16.8917C50.264 16.8357 50.324 16.7397 50.324 16.6037C50.324 16.4677 50.264 16.2797 50.144 16.0397L48.8 13.2557H46.592L45.608 15.5237C45.496 15.7877 45.44 16.0077 45.44 16.1837C45.44 16.7037 45.828 16.9637 46.604 16.9637C46.644 16.9637 46.664 16.9877 46.664 17.0357C46.664 17.0837 46.644 17.1077 46.604 17.1077C46.46 17.1077 46.252 17.0997 45.98 17.0837C45.676 17.0677 45.412 17.0597 45.188 17.0597C44.98 17.0597 44.732 17.0677 44.444 17.0837C44.188 17.0997 43.98 17.1077 43.82 17.1077C43.788 17.1077 43.772 17.0837 43.772 17.0357C43.772 16.9877 43.788 16.9637 43.82 16.9637C44.044 16.9637 44.232 16.9197 44.384 16.8317C44.544 16.7437 44.696 16.5917 44.84 16.3757C44.984 16.1597 45.148 15.8397 45.332 15.4157L47.888 9.52373C47.896 9.49973 47.924 9.48773 47.972 9.48773C48.02 9.47973 48.048 9.49173 48.056 9.52373L50.948 15.4637C51.22 16.0477 51.452 16.4437 51.644 16.6517C51.836 16.8597 52.052 16.9637 52.292 16.9637ZM46.7 12.9797H48.668L47.636 10.8197L46.7 12.9797ZM59.0056 9.60773C59.0216 9.60773 59.0296 9.63173 59.0296 9.67973C59.0296 9.72773 59.0216 9.75173 59.0056 9.75173C58.7336 9.75173 58.4376 9.87573 58.1176 10.1237C57.8056 10.3637 57.5256 10.6837 57.2776 11.0837L55.7896 13.4237V16.1357C55.7896 16.3837 55.8096 16.5637 55.8496 16.6757C55.8976 16.7877 55.9856 16.8637 56.1136 16.9037C56.2496 16.9437 56.4616 16.9637 56.7496 16.9637C56.7736 16.9637 56.7856 16.9877 56.7856 17.0357C56.7856 17.0837 56.7736 17.1077 56.7496 17.1077C56.5016 17.1077 56.3056 17.1037 56.1616 17.0957L55.2976 17.0837L54.4576 17.0957C54.3136 17.1037 54.1096 17.1077 53.8456 17.1077C53.8216 17.1077 53.8096 17.0837 53.8096 17.0357C53.8096 16.9877 53.8216 16.9637 53.8456 16.9637C54.1336 16.9637 54.3456 16.9437 54.4816 16.9037C54.6176 16.8637 54.7096 16.7877 54.7576 16.6757C54.8056 16.5557 54.8296 16.3757 54.8296 16.1357V13.6277L52.9216 10.7837C52.6656 10.3997 52.4376 10.1317 52.2376 9.97973C52.0456 9.82773 51.8376 9.75173 51.6136 9.75173C51.5896 9.75173 51.5776 9.72773 51.5776 9.67973C51.5776 9.63173 51.5896 9.60773 51.6136 9.60773C51.7016 9.60773 51.8416 9.61573 52.0336 9.63173L52.4296 9.64373C52.6936 9.64373 53.0576 9.63573 53.5216 9.61973L54.2176 9.60773C54.2336 9.60773 54.2416 9.63173 54.2416 9.67973C54.2416 9.72773 54.2336 9.75173 54.2176 9.75173C53.8416 9.75173 53.6536 9.84773 53.6536 10.0397C53.6536 10.1277 53.6976 10.2397 53.7856 10.3757L55.6336 13.1357L56.9776 11.0117C57.1696 10.6997 57.2656 10.4437 57.2656 10.2437C57.2656 10.0837 57.2096 9.96373 57.0976 9.88373C56.9856 9.79573 56.8216 9.75173 56.6056 9.75173C56.5816 9.75173 56.5696 9.72773 56.5696 9.67973C56.5696 9.63173 56.5816 9.60773 56.6056 9.60773L57.1936 9.61973C57.5136 9.63573 57.8056 9.64373 58.0696 9.64373C58.2056 9.64373 58.3696 9.63573 58.5616 9.61973L59.0056 9.60773Z" fill="white"/>
<path d="M68.3501 62.5573H67.2495V44.5753C67.2495 43.2782 65.9423 42.2227 64.3362 42.2227H23.7581C22.152 42.2236 20.8448 43.2782 20.8448 44.5753V62.5564H19.7441V44.5753C19.7441 42.6684 21.545 41.117 23.7581 41.117H64.3362C66.5493 41.117 68.3501 42.6684 68.3501 44.5753V62.5573Z" fill="white"/>
<path d="M67.7998 57.5172H20.2944V58.6226H67.7998V57.5172Z" fill="white"/>
<path d="M42.2709 41.6707H41.1703V38.3017C41.1703 37.2794 40.3422 36.4476 39.3246 36.4476H33.233C32.2153 36.4476 31.3873 37.2794 31.3873 38.3017V41.6707H30.2866V38.3017C30.2866 36.6695 31.6082 35.3419 33.233 35.3419H39.3246C40.9493 35.3419 42.2709 36.6695 42.2709 38.3017V41.6707Z" fill="white"/>
<path d="M58.185 41.6707H57.0843V38.3017C57.0843 37.2794 56.2563 36.4476 55.2386 36.4476H49.147C48.1293 36.4476 47.3013 37.2794 47.3013 38.3017V41.6707H46.2007V38.3017C46.2007 36.6695 47.5223 35.3419 49.147 35.3419H55.2386C56.8634 35.3419 58.185 36.6695 58.185 38.3017V41.6707Z" fill="white"/>
<path d="M61.4193 41.6708H60.3187V27.6285H27.6407V41.6708H26.54V26.5228H61.4193V41.6708Z" fill="white"/>
</svg>
