<svg width="69" height="60" viewBox="0 0 69 60" fill="none" xmlns="http://www.w3.org/2000/svg">
<path d="M21.8179 21.9472C21.3912 21.9472 20.8579 21.9272 20.2179 21.8872C19.5779 21.8472 18.9912 21.8272 18.4579 21.8272C17.9779 21.8272 17.5179 21.8339 17.0779 21.8472C16.6379 21.8605 16.2445 21.8672 15.8979 21.8672C15.8712 21.8672 15.8579 21.8272 15.8579 21.7472C15.8579 21.6672 15.8712 21.6272 15.8979 21.6272C16.3112 21.6272 16.6179 21.5939 16.8179 21.5272C17.0312 21.4605 17.1712 21.3272 17.2379 21.1272C17.3179 20.9272 17.3579 20.6339 17.3579 20.2472V10.9872C17.3579 10.6005 17.3245 10.3139 17.2579 10.1272C17.1912 9.92719 17.0512 9.79385 16.8379 9.72719C16.6379 9.64719 16.3379 9.60719 15.9379 9.60719C15.8979 9.60719 15.8779 9.56719 15.8779 9.48719C15.8779 9.40719 15.8979 9.36719 15.9379 9.36719C16.2845 9.36719 16.6712 9.38052 17.0979 9.40719C17.5245 9.42052 17.9845 9.42719 18.4779 9.42719C18.9579 9.42719 19.4845 9.41385 20.0579 9.38719C20.6312 9.34719 21.1245 9.32719 21.5379 9.32719C22.9245 9.32719 24.1312 9.59385 25.1579 10.1272C26.1845 10.6605 26.9845 11.3872 27.5579 12.3072C28.1312 13.2272 28.4179 14.2605 28.4179 15.4072C28.4179 16.4072 28.2445 17.3139 27.8979 18.1272C27.5512 18.9272 27.0712 19.6139 26.4579 20.1872C25.8445 20.7472 25.1379 21.1805 24.3379 21.4872C23.5512 21.7939 22.7112 21.9472 21.8179 21.9472ZM21.6179 21.4872C22.4579 21.4872 23.2045 21.2739 23.8579 20.8472C24.5112 20.4072 25.0245 19.7672 25.3979 18.9272C25.7712 18.0872 25.9579 17.0605 25.9579 15.8472C25.9579 14.7139 25.7845 13.6872 25.4379 12.7672C25.0912 11.8472 24.6045 11.1205 23.9779 10.5872C23.3512 10.0405 22.6045 9.76719 21.7379 9.76719C20.9645 9.76719 20.4112 9.84052 20.0779 9.98719C19.7445 10.1339 19.5779 10.4805 19.5779 11.0272V20.0272C19.5779 20.5205 19.7045 20.8872 19.9579 21.1272C20.2245 21.3672 20.7779 21.4872 21.6179 21.4872ZM30.1794 21.8672C30.1394 21.8672 30.1194 21.8272 30.1194 21.7472C30.1194 21.6672 30.1394 21.6272 30.1794 21.6272C30.5927 21.6272 30.8727 21.5339 31.0194 21.3472C31.1661 21.1472 31.2394 20.7805 31.2394 20.2472V16.6672C31.2394 16.2272 31.1927 15.9072 31.0994 15.7072C31.0194 15.4939 30.8661 15.3872 30.6394 15.3872C30.5461 15.3872 30.4327 15.4072 30.2994 15.4472C30.1794 15.4872 30.0461 15.5405 29.8994 15.6072C29.8461 15.6205 29.7994 15.5872 29.7594 15.5072C29.7327 15.4272 29.7394 15.3805 29.7794 15.3672L32.7994 13.9672C32.8261 13.9539 32.8461 13.9472 32.8594 13.9472C32.9261 13.9472 32.9927 13.9805 33.0594 14.0472C33.1261 14.1139 33.1594 14.1739 33.1594 14.2272C33.1594 14.3872 33.1527 14.6539 33.1394 15.0272C33.1261 15.4005 33.1194 15.9339 33.1194 16.6272V20.2472C33.1194 20.7805 33.1927 21.1472 33.3394 21.3472C33.4994 21.5339 33.7861 21.6272 34.1994 21.6272C34.2394 21.6272 34.2594 21.6672 34.2594 21.7472C34.2594 21.8272 34.2394 21.8672 34.1994 21.8672C33.9327 21.8672 33.6261 21.8605 33.2794 21.8472C32.9327 21.8339 32.5661 21.8272 32.1794 21.8272C31.8061 21.8272 31.4461 21.8339 31.0994 21.8472C30.7527 21.8605 30.4461 21.8672 30.1794 21.8672ZM32.0994 11.9672C31.7261 11.9672 31.4261 11.8605 31.1994 11.6472C30.9861 11.4339 30.8794 11.1339 30.8794 10.7472C30.8794 10.4005 30.9861 10.1272 31.1994 9.92719C31.4261 9.71385 31.7261 9.60719 32.0994 9.60719C32.4727 9.60719 32.7594 9.71385 32.9594 9.92719C33.1594 10.1272 33.2594 10.4005 33.2594 10.7472C33.2594 11.5605 32.8727 11.9672 32.0994 11.9672ZM40.8133 21.8672C40.7733 21.8672 40.7533 21.8272 40.7533 21.7472C40.7533 21.6672 40.7733 21.6272 40.8133 21.6272C41.2267 21.6272 41.5067 21.5339 41.6533 21.3472C41.8 21.1472 41.8733 20.7805 41.8733 20.2472V17.3672C41.8733 16.6472 41.74 16.1139 41.4733 15.7672C41.22 15.4205 40.8133 15.2472 40.2533 15.2472C39.8533 15.2472 39.44 15.3472 39.0133 15.5472C38.6 15.7472 38.2667 16.0205 38.0133 16.3672L37.9133 16.1272C38.38 15.4605 38.9067 14.9272 39.4933 14.5272C40.08 14.1139 40.72 13.9072 41.4133 13.9072C42.16 13.9072 42.7333 14.1405 43.1333 14.6072C43.5467 15.0739 43.7533 15.6739 43.7533 16.4072V20.2472C43.7533 20.7805 43.8267 21.1472 43.9733 21.3472C44.1333 21.5339 44.42 21.6272 44.8333 21.6272C44.8733 21.6272 44.8933 21.6672 44.8933 21.7472C44.8933 21.8272 44.8733 21.8672 44.8333 21.8672C44.5667 21.8672 44.26 21.8605 43.9133 21.8472C43.5667 21.8339 43.2 21.8272 42.8133 21.8272C42.44 21.8272 42.08 21.8339 41.7333 21.8472C41.3867 21.8605 41.08 21.8672 40.8133 21.8672ZM35.4333 21.8672C35.3933 21.8672 35.3733 21.8272 35.3733 21.7472C35.3733 21.6672 35.3933 21.6272 35.4333 21.6272C35.8467 21.6272 36.1267 21.5339 36.2733 21.3472C36.42 21.1472 36.4933 20.7805 36.4933 20.2472V16.4872C36.4933 16.0739 36.4467 15.7739 36.3533 15.5872C36.26 15.3872 36.1 15.2872 35.8733 15.2872C35.7533 15.2872 35.6133 15.3139 35.4533 15.3672C35.2933 15.4072 35.1133 15.4739 34.9133 15.5672C34.86 15.5939 34.82 15.5672 34.7933 15.4872C34.7667 15.4072 34.7667 15.3605 34.7933 15.3472L37.5733 13.9872C37.6533 13.9605 37.7 13.9472 37.7133 13.9472C37.86 13.9472 38.0067 14.1072 38.1533 14.4272C38.3 14.7472 38.3733 15.2072 38.3733 15.8072V20.2472C38.3733 20.7805 38.4467 21.1472 38.5933 21.3472C38.7533 21.5339 39.04 21.6272 39.4533 21.6272C39.4933 21.6272 39.5133 21.6672 39.5133 21.7472C39.5133 21.8272 39.4933 21.8672 39.4533 21.8672C39.1867 21.8672 38.88 21.8605 38.5333 21.8472C38.1867 21.8339 37.82 21.8272 37.4333 21.8272C37.06 21.8272 36.7 21.8339 36.3533 21.8472C36.0067 21.8605 35.7 21.8672 35.4333 21.8672ZM49.8807 22.1072C49.014 22.1072 48.274 21.9272 47.6607 21.5672C47.0607 21.2072 46.6007 20.7339 46.2807 20.1472C45.974 19.5472 45.8207 18.9139 45.8207 18.2472C45.8207 17.4605 46.0207 16.7472 46.4207 16.1072C46.8207 15.4539 47.3607 14.9339 48.0407 14.5472C48.734 14.1605 49.514 13.9672 50.3807 13.9672C51.2073 13.9672 51.8407 14.1472 52.2807 14.5072C52.7207 14.8539 52.9407 15.3339 52.9407 15.9472C52.9407 16.0939 52.9273 16.2272 52.9007 16.3472C52.874 16.4672 52.814 16.5272 52.7207 16.5272H50.8007C50.8273 15.9005 50.754 15.3872 50.5807 14.9872C50.4073 14.5739 50.094 14.3672 49.6407 14.3672C49.1073 14.3672 48.674 14.6472 48.3407 15.2072C48.0073 15.7539 47.8407 16.4872 47.8407 17.4072C47.8407 18.1539 47.9607 18.8072 48.2007 19.3672C48.4407 19.9272 48.7873 20.3605 49.2407 20.6672C49.694 20.9739 50.2407 21.1272 50.8807 21.1272C51.2007 21.1272 51.5407 21.0805 51.9007 20.9872C52.274 20.8939 52.6073 20.7539 52.9007 20.5672C52.9273 20.5405 52.9607 20.5539 53.0007 20.6072C53.054 20.6605 53.0673 20.7072 53.0407 20.7472C52.5473 21.2405 52.0407 21.5939 51.5207 21.8072C51.014 22.0072 50.4673 22.1072 49.8807 22.1072ZM47.1407 16.5672L47.1207 16.1872L51.5007 16.0872V16.5272L47.1407 16.5672Z" fill="white"/>
<path d="M45.9345 27.9712C43.3075 29.0877 41.8681 31.0061 41.591 33.6973C41.5872 33.7373 41.5833 33.7773 41.5814 33.8009C37.7029 30.3169 33.4041 29.7768 28.6558 32.1535V31.9225C28.6558 30.8388 28.6558 29.7568 28.6558 28.6731C28.6558 28.1603 28.3574 27.8312 27.8925 27.8276C27.4275 27.8239 27.1175 28.1567 27.1175 28.664C27.1175 30.0514 27.1175 31.4407 27.1175 32.8281V33.1081H25.5793V32.8499C25.5793 31.4297 25.5832 30.0096 25.5774 28.5895C25.5755 28.0312 25.0195 27.6712 24.5041 27.8912C24.1729 28.033 24.0373 28.2912 24.0392 28.6295C24.0431 30.0332 24.0411 31.437 24.0411 32.8426V33.1136H22.499V32.8608C22.499 31.4407 22.501 30.0205 22.4971 28.6004C22.4952 28.0367 21.9527 27.6748 21.4335 27.8857C21.1313 28.0094 20.9628 28.2367 20.9628 28.5458C20.9589 30.6078 20.9376 32.6717 20.9744 34.7319C20.9938 35.7957 21.4839 36.6994 22.3189 37.4249C22.4506 37.5395 22.5029 37.6486 22.5029 37.814C22.4971 41.9072 22.499 45.9985 22.499 50.0899C22.499 51.39 23.1093 52.1283 24.4557 52.4574C24.4712 52.461 24.4848 52.4719 24.4983 52.481H25.1144C25.2694 52.4392 25.4263 52.4047 25.5774 52.3537C26.4937 52.0464 27.104 51.2518 27.1117 50.3317C27.1214 49.2643 27.1137 48.197 27.1137 47.1314V46.855C29.4617 48.8697 32.1778 49.7735 35.3007 49.4171C38.4255 49.0607 40.8258 47.5605 42.6043 45.0603V45.3712C42.6043 46.9677 42.6043 48.5643 42.6043 50.1608C42.6043 51.3791 43.2687 52.1628 44.5357 52.4465C44.559 52.4519 44.5803 52.4683 44.6035 52.4792H45.2196C45.3746 52.4374 45.5334 52.4047 45.6826 52.3519C46.4672 52.0737 46.9573 51.5464 47.1646 50.7845C47.1801 50.7227 47.2014 50.6627 47.2208 50.6008V28.3567C46.8682 27.7966 46.5796 27.6966 45.9345 27.9712ZM26.4627 36.1611C26.3291 36.3048 26.178 36.443 26.0114 36.5485C25.6994 36.7485 25.5735 37.0085 25.5735 37.3631C25.5813 41.6163 25.5774 45.8694 25.5774 50.1226C25.5774 50.2263 25.5832 50.3335 25.5658 50.4354C25.498 50.8009 25.1415 51.0609 24.7579 51.0372C24.3705 51.0118 24.0644 50.7154 24.0411 50.3408C24.0373 50.2608 24.0392 50.1808 24.0392 50.1008C24.0392 45.864 24.0373 41.6254 24.0431 37.3886C24.0431 37.0158 23.9075 36.7539 23.5839 36.5357C22.8904 36.063 22.5533 35.4029 22.4932 34.5792H27.1079C27.0943 35.1883 26.8754 35.7102 26.4627 36.1611ZM41.4496 44.0365C39.9482 46.3804 37.7668 47.7624 34.8609 48.0024C31.7167 48.2606 29.1769 47.1368 27.259 44.7839C27.1737 44.6802 27.1234 44.5238 27.1214 44.3929C27.1098 43.2946 27.1156 42.1945 27.1156 41.0962C27.1156 39.9888 27.1137 38.8814 27.1214 37.7759C27.1214 37.6777 27.166 37.5504 27.2396 37.4886C28.2063 36.6485 28.679 35.6138 28.648 34.3828C28.6403 34.1155 28.7294 33.95 28.958 33.7864C33.0263 30.8897 38.8537 31.9789 41.4089 36.1302C41.5136 36.2993 41.5717 36.5176 41.5736 36.7139C41.5852 38.7596 41.5814 40.8053 41.5814 42.8509C41.5814 42.98 41.5562 43.1201 41.6046 43.2328C41.7344 43.5383 41.6124 43.7801 41.4496 44.0365ZM43.1234 42.9928C43.0944 42.9546 43.1176 42.8837 43.1176 42.8273C43.1176 39.9397 43.106 37.0503 43.1215 34.1628C43.1312 32.328 43.9565 30.8733 45.5489 29.8041C45.5761 29.7859 45.6051 29.7714 45.671 29.735V43.2346C44.8941 43.2346 44.127 43.2419 43.3617 43.2237C43.2784 43.2219 43.1913 43.0819 43.1234 42.9928ZM45.6807 50.2699C45.6787 50.8536 45.0937 51.2118 44.5687 50.9554C44.2664 50.8081 44.1425 50.5608 44.1425 50.2444C44.1444 48.8243 44.1425 47.406 44.1425 45.9876V44.6911H45.6652C45.671 44.7439 45.6807 44.7893 45.6807 44.8348C45.6826 46.6459 45.6845 48.457 45.6807 50.2699Z" fill="white"/>
<path d="M34.0995 35.0508C31.1335 35.0471 28.7119 37.311 28.7041 40.0913C28.6983 42.8752 31.1064 45.1518 34.0685 45.1609C37.0461 45.17 39.4755 42.9007 39.4755 40.1077C39.4774 37.3237 37.0635 35.0526 34.0995 35.0508ZM34.0859 43.7171C31.9684 43.7171 30.2423 42.0915 30.2423 40.1022C30.2423 38.1129 31.9723 36.4928 34.0917 36.4946C36.2111 36.4946 37.9372 38.1184 37.9353 40.1077C37.9372 42.097 36.2072 43.7171 34.0859 43.7171Z" fill="white"/>
<rect x="1.03711" y="1.07812" width="66.9627" height="58.4082" stroke="white"/>
</svg>
