<svg width="69" height="60" viewBox="0 0 69 60" fill="none" xmlns="http://www.w3.org/2000/svg">
<rect x="1" y="1.07812" width="66.9627" height="58.4082" stroke="white"/>
<path d="M20.2954 10.8227C20.2954 11.3294 20.4221 11.7761 20.6754 12.1627C20.9421 12.5361 21.2821 12.8761 21.6954 13.1827C22.1221 13.4894 22.5688 13.7961 23.0354 14.1027C23.5421 14.4227 24.0221 14.7627 24.4754 15.1227C24.9421 15.4694 25.3221 15.8761 25.6154 16.3427C25.9221 16.7961 26.0754 17.3427 26.0754 17.9827C26.0754 18.6894 25.8821 19.3094 25.4954 19.8427C25.1221 20.3761 24.6088 20.7961 23.9554 21.1027C23.3154 21.3961 22.5821 21.5427 21.7554 21.5427C21.3554 21.5427 20.9354 21.5027 20.4954 21.4227C20.0688 21.3427 19.6754 21.2427 19.3154 21.1227C18.9688 21.0027 18.7154 20.8761 18.5554 20.7427C18.5021 20.7027 18.4554 20.6627 18.4154 20.6227C18.3754 20.5694 18.3554 20.4827 18.3554 20.3627L18.2954 17.1827C18.2821 17.1161 18.3088 17.0827 18.3754 17.0827C18.4554 17.0694 18.5021 17.0894 18.5154 17.1427C18.7154 17.5561 18.9354 17.9961 19.1754 18.4627C19.4154 18.9161 19.6821 19.3361 19.9754 19.7227C20.2821 20.1094 20.6221 20.4294 20.9954 20.6827C21.3688 20.9227 21.7954 21.0427 22.2754 21.0427C22.5821 21.0427 22.8754 20.9894 23.1554 20.8827C23.4354 20.7761 23.6621 20.5827 23.8354 20.3027C24.0221 20.0227 24.1154 19.6361 24.1154 19.1427C24.1154 18.5161 23.9754 17.9827 23.6954 17.5427C23.4154 17.0894 23.0554 16.6961 22.6154 16.3627C22.1754 16.0161 21.7154 15.6894 21.2354 15.3827C20.7688 15.0761 20.3221 14.7627 19.8954 14.4427C19.4688 14.1094 19.1221 13.7361 18.8554 13.3227C18.5888 12.8961 18.4554 12.3894 18.4554 11.8027C18.4554 11.0561 18.6621 10.4494 19.0754 9.98273C19.5021 9.50273 20.0354 9.1494 20.6754 8.92273C21.3288 8.69607 21.9888 8.58273 22.6554 8.58273C23.1354 8.58273 23.6154 8.6294 24.0954 8.72273C24.5754 8.80273 24.9554 8.90273 25.2354 9.02273C25.3688 9.07607 25.4488 9.13607 25.4754 9.20273C25.5154 9.2694 25.5354 9.34273 25.5354 9.42273V12.3627C25.5354 12.4027 25.5021 12.4361 25.4354 12.4627C25.3821 12.4761 25.3421 12.4627 25.3154 12.4227C25.2354 12.2627 25.1221 12.0027 24.9754 11.6427C24.8288 11.2694 24.6354 10.8827 24.3954 10.4827C24.1554 10.0827 23.8488 9.74273 23.4754 9.46273C23.1021 9.1694 22.6488 9.02273 22.1154 9.02273C21.7821 9.02273 21.4754 9.0894 21.1954 9.22273C20.9288 9.35607 20.7088 9.55607 20.5354 9.82273C20.3754 10.0761 20.2954 10.4094 20.2954 10.8227ZM30.7884 21.5427C30.4684 21.5427 30.1417 21.4894 29.8084 21.3827C29.4884 21.2761 29.2151 21.0894 28.9884 20.8227C28.7751 20.5561 28.6684 20.1827 28.6684 19.7027V15.2627C28.6684 14.9827 28.6351 14.7627 28.5684 14.6027C28.5017 14.4427 28.3951 14.3294 28.2484 14.2627C28.1017 14.1961 27.9017 14.1627 27.6484 14.1627C27.5951 14.1627 27.5684 14.1027 27.5684 13.9827C27.5684 13.8627 27.5951 13.8027 27.6484 13.8027C28.3284 13.7761 28.8817 13.6294 29.3084 13.3627C29.7351 13.0827 30.0551 12.6761 30.2684 12.1427C30.2951 12.0894 30.3484 12.0627 30.4284 12.0627C30.5217 12.0627 30.5684 12.0894 30.5684 12.1427V19.0427C30.5684 19.5761 30.7017 19.9561 30.9684 20.1827C31.2484 20.4094 31.5884 20.5227 31.9884 20.5227C32.2951 20.5227 32.5817 20.4627 32.8484 20.3427C33.1284 20.2094 33.3617 20.0694 33.5484 19.9227C33.5884 19.8827 33.6351 19.8961 33.6884 19.9627C33.7551 20.0161 33.7617 20.0627 33.7084 20.1027C33.2151 20.5961 32.7351 20.9627 32.2684 21.2027C31.8151 21.4294 31.3217 21.5427 30.7884 21.5427ZM33.0884 14.6027C32.5417 14.4827 32.0084 14.4027 31.4884 14.3627C30.9817 14.3094 30.4417 14.2827 29.8684 14.2827V13.7627C30.4151 13.7627 30.9484 13.7427 31.4684 13.7027C32.0017 13.6627 32.5684 13.6161 33.1684 13.5627C33.1951 13.5627 33.2217 13.6161 33.2484 13.7227C33.2884 13.8161 33.3084 13.9227 33.3084 14.0427C33.3084 14.1761 33.2817 14.3094 33.2284 14.4427C33.1884 14.5627 33.1417 14.6161 33.0884 14.6027ZM40.2071 21.4227C40.1538 21.4494 40.0871 21.4627 40.0071 21.4627C39.7671 21.4627 39.5271 21.3027 39.2871 20.9827C39.0471 20.6627 38.9271 20.2027 38.9271 19.6027V16.2027C38.9271 15.6827 38.8938 15.2494 38.8271 14.9027C38.7605 14.5561 38.6538 14.2961 38.5071 14.1227C38.3605 13.9494 38.1605 13.8627 37.9071 13.8627C37.7071 13.8627 37.5271 13.9161 37.3671 14.0227C37.2071 14.1161 37.0805 14.2761 36.9871 14.5027C36.8938 14.7161 36.8338 15.0161 36.8071 15.4027C36.7671 15.7894 36.6471 16.0761 36.4471 16.2627C36.2471 16.4361 35.9738 16.5227 35.6271 16.5227C35.2938 16.5227 35.0538 16.4494 34.9071 16.3027C34.7605 16.1561 34.6871 15.9561 34.6871 15.7027C34.6871 15.4094 34.8271 15.1294 35.1071 14.8627C35.3871 14.5827 35.7338 14.3361 36.1471 14.1227C36.5738 13.8961 37.0138 13.7227 37.4671 13.6027C37.9205 13.4694 38.3271 13.4027 38.6871 13.4027C39.2738 13.4027 39.7738 13.5827 40.1871 13.9427C40.6005 14.2894 40.8071 14.8427 40.8071 15.6027V19.1427C40.8071 19.5294 40.8738 19.8294 41.0071 20.0427C41.1538 20.2561 41.3538 20.3627 41.6071 20.3627C41.7938 20.3627 41.9871 20.3161 42.1871 20.2227C42.2405 20.1961 42.2805 20.2227 42.3071 20.3027C42.3471 20.3694 42.3338 20.4161 42.2671 20.4427L40.2071 21.4227ZM36.0071 21.4427C35.5938 21.4427 35.2605 21.3361 35.0071 21.1227C34.7538 20.8961 34.6271 20.5761 34.6271 20.1627C34.6271 19.6827 34.8071 19.3427 35.1671 19.1427C35.5405 18.9294 36.1138 18.6961 36.8871 18.4427L39.1271 17.7227L39.2071 18.0227L37.8271 18.5227C37.4671 18.6561 37.2071 18.8027 37.0471 18.9627C36.9005 19.1227 36.8271 19.3161 36.8271 19.5427C36.8271 19.8227 36.9071 20.0427 37.0671 20.2027C37.2271 20.3627 37.4271 20.4427 37.6671 20.4427C37.7738 20.4427 37.9138 20.4227 38.0871 20.3827C38.2738 20.3294 38.4738 20.2561 38.6871 20.1627L39.7871 19.5627L39.8071 19.9027L38.0871 20.8427C37.7538 21.0161 37.4005 21.1627 37.0271 21.2827C36.6538 21.3894 36.3138 21.4427 36.0071 21.4427ZM50.9479 13.5827C50.9746 13.5827 50.9879 13.6227 50.9879 13.7027C50.9879 13.7827 50.9746 13.8227 50.9479 13.8227C50.4946 13.8227 50.1146 14.0161 49.8079 14.4027C49.5013 14.7894 49.2279 15.3094 48.9879 15.9627L46.7679 21.8627C46.2879 23.1427 45.8213 24.1494 45.3679 24.8827C44.9279 25.6294 44.4813 26.1561 44.0279 26.4627C43.5746 26.7694 43.0946 26.9227 42.5879 26.9227C42.2013 26.9227 41.9013 26.8361 41.6879 26.6627C41.4613 26.5027 41.3479 26.2627 41.3479 25.9427C41.3479 25.6227 41.4479 25.3827 41.6479 25.2227C41.8346 25.0761 42.0546 25.0027 42.3079 25.0027C42.5346 25.0027 42.7146 25.0427 42.8479 25.1227C42.9813 25.2161 43.1146 25.3027 43.2479 25.3827C43.3813 25.4761 43.5546 25.5227 43.7679 25.5227C44.0879 25.5227 44.3813 25.3827 44.6479 25.1027C44.9146 24.8361 45.2013 24.3694 45.5079 23.7027C45.8146 23.0494 46.1746 22.1494 46.5879 21.0027L46.5279 22.1027L43.1279 15.2427C42.8346 14.6561 42.6013 14.2761 42.4279 14.1027C42.2679 13.9161 42.0679 13.8227 41.8279 13.8227C41.7879 13.8227 41.7679 13.7827 41.7679 13.7027C41.7679 13.6227 41.7879 13.5827 41.8279 13.5827C42.0946 13.5827 42.3746 13.5894 42.6679 13.6027C42.9746 13.6161 43.2613 13.6227 43.5279 13.6227C44.0079 13.6227 44.4279 13.6161 44.7879 13.6027C45.1479 13.5894 45.4746 13.5827 45.7679 13.5827C45.8079 13.5827 45.8279 13.6227 45.8279 13.7027C45.8279 13.7827 45.8079 13.8227 45.7679 13.8227C45.3013 13.8227 45.0013 13.8761 44.8679 13.9827C44.7346 14.0894 44.7413 14.2961 44.8879 14.6027L47.4279 19.8027L46.7079 20.9827L48.4479 15.9427C48.6746 15.2894 48.6879 14.7761 48.4879 14.4027C48.3013 14.0161 47.9346 13.8227 47.3879 13.8227C47.3613 13.8227 47.3479 13.7827 47.3479 13.7027C47.3479 13.6227 47.3613 13.5827 47.3879 13.5827C47.7079 13.5827 48.0079 13.5894 48.2879 13.6027C48.5813 13.6161 48.9546 13.6227 49.4079 13.6227C49.7279 13.6227 49.9879 13.6161 50.1879 13.6027C50.4013 13.5894 50.6546 13.5827 50.9479 13.5827Z" fill="white"/>
<path d="M50.1887 43.2794C50.0815 43.2443 50.1185 43.1411 50.101 43.071C49.7464 41.6235 48.8814 40.6299 47.471 40.1331C47.2781 40.0649 47.2723 39.9461 47.2723 39.7844C47.2761 37.618 47.2722 35.4497 47.2761 33.2833C47.2761 32.5917 47.1378 31.9469 46.7053 31.3878C46.0975 30.6027 45.289 30.2637 44.3071 30.2656C37.7535 30.2695 31.1998 30.2676 24.6462 30.2676C24.504 30.2676 24.3598 30.2715 24.2176 30.2851C23.4734 30.365 22.8578 30.6864 22.3668 31.2514C21.8584 31.8398 21.685 32.5333 21.6869 33.2931C21.6908 35.4497 21.6869 37.6063 21.6928 39.7649C21.6928 39.9578 21.6636 40.0786 21.4531 40.1487C19.844 40.6845 18.7705 42.2079 18.7725 43.9671C18.7764 45.6737 18.7725 47.3803 18.7744 49.0889C18.7744 49.7571 19.1446 50.1272 19.8206 50.135C20.2901 50.1409 20.7615 50.137 21.2311 50.137C21.6889 50.137 21.6869 50.137 21.6889 50.6084C21.6889 50.9961 21.6772 51.3857 21.6928 51.7734C21.7162 52.3676 22.1097 52.7495 22.6591 52.7319C23.1812 52.7164 23.5494 52.3092 23.5552 51.7286C23.5611 51.3 23.5747 50.8695 23.5494 50.4409C23.5357 50.1818 23.6137 50.1272 23.8669 50.1272C26.5651 50.137 29.2653 50.1331 31.9635 50.1331C36.3391 50.1331 40.7147 50.135 45.0903 50.1272C45.3338 50.1272 45.4293 50.1642 45.4137 50.435C45.3864 50.8734 45.4059 51.3137 45.4059 51.754C45.4059 52.0092 45.476 52.239 45.6514 52.428C45.9124 52.7047 46.2339 52.804 46.6001 52.6949C46.9742 52.5819 47.2274 52.3267 47.2508 51.9293C47.282 51.4091 47.2781 50.887 47.2703 50.3669C47.2664 50.174 47.3249 50.1253 47.5119 50.1292C48.0028 50.1428 48.4938 50.1155 48.9847 50.1389C49.5594 50.1662 49.9724 49.9616 50.1906 49.4142V43.5853C50.1516 43.5444 50.1516 43.5035 50.1906 43.4625V43.2794H50.1887ZM48.0048 48.2667C43.4967 48.255 38.9886 48.2589 34.4806 48.2589C29.992 48.2589 25.5053 48.255 21.0187 48.2667C20.6856 48.2687 20.6252 48.1674 20.6291 47.8635C20.6466 46.5855 20.631 45.3075 20.6388 44.0295C20.6447 42.9093 21.2252 42.1261 22.2402 41.8456C22.4779 41.7793 22.7234 41.7735 22.9688 41.7735C30.6446 41.7735 38.3224 41.7735 45.9981 41.7735C47.1729 41.7735 47.9639 42.3345 48.2502 43.3671C48.3165 43.6048 48.3282 43.8502 48.3282 44.0957C48.3282 45.3737 48.3204 46.6517 48.336 47.9277C48.336 48.1908 48.2834 48.2687 48.0048 48.2667ZM27.5275 32.1222H44.2136C45.0786 32.1222 45.4059 32.4437 45.4059 33.297C45.4059 35.403 45.402 37.5089 45.4118 39.6149C45.4137 39.8526 45.3553 39.9227 45.1137 39.913C44.5623 39.8935 44.0091 39.8993 43.4577 39.911C43.2727 39.9149 43.2103 39.8682 43.2162 39.6753C43.2298 39.1746 43.224 38.6739 43.2201 38.1733C43.2064 36.3556 41.9518 35.0874 40.1361 35.0854C38.8484 35.0835 37.5606 35.0445 36.2729 35.1107C35.6728 35.1419 35.1429 35.3582 34.6773 35.7361C34.5565 35.8335 34.4669 35.8939 34.3169 35.7614C33.787 35.2997 33.15 35.0932 32.4584 35.0874C31.1297 35.0776 29.7991 35.0484 28.4724 35.1107C26.986 35.1809 25.8326 36.3946 25.7586 37.8849C25.7294 38.4655 25.7372 39.0499 25.7469 39.6324C25.7508 39.835 25.7138 39.9188 25.4859 39.911C24.9248 39.8935 24.3618 39.8935 23.7987 39.911C23.5883 39.9169 23.5533 39.8448 23.5533 39.6539C23.5611 37.4875 23.5572 35.3192 23.5591 33.1528C23.5591 32.5021 23.9332 32.1261 24.5858 32.1222C25.5657 32.1183 26.5476 32.1222 27.5275 32.1222ZM35.4098 38.1421C35.4176 37.3979 35.854 36.9576 36.5904 36.9557C37.7866 36.9518 38.9828 36.9518 40.177 36.9557C40.9173 36.9576 41.3498 37.394 41.3557 38.1401C41.3596 38.6408 41.344 39.1434 41.3615 39.6422C41.3693 39.8526 41.3186 39.9169 41.0985 39.913C40.1887 39.8993 39.2789 39.9071 38.3711 39.9071C37.4613 39.9071 36.5515 39.9013 35.6417 39.911C35.4546 39.913 35.3981 39.8662 35.404 39.6733C35.4176 39.1649 35.404 38.6525 35.4098 38.1421ZM27.6074 38.0758C27.6172 37.4115 28.0633 36.9615 28.7276 36.9576C29.9628 36.9518 31.1998 36.9518 32.4369 36.9576C33.0584 36.9615 33.5123 37.3745 33.5435 37.994C33.5727 38.5746 33.5454 39.159 33.5571 39.7396C33.561 39.948 33.4305 39.9052 33.3156 39.9052C32.396 39.9071 31.4765 39.9052 30.5569 39.9052C29.6666 39.9052 28.7783 39.8974 27.8899 39.9091C27.6756 39.913 27.5879 39.8799 27.5996 39.6344C27.623 39.1181 27.6016 38.596 27.6074 38.0758Z" fill="white"/>
</svg>
