<svg width="43" height="34" viewBox="0 0 43 34" fill="none" xmlns="http://www.w3.org/2000/svg">
<path d="M6.24913 20.3856C6.6598 20.3856 7.0938 20.4276 7.55113 20.5116C8.0178 20.5862 8.39113 20.6936 8.67113 20.8336C8.7458 20.8802 8.79713 20.9222 8.82513 20.9596C8.85313 20.9969 8.8718 21.0669 8.88113 21.1696L9.03513 22.8496C9.03513 22.8776 9.0118 22.8962 8.96513 22.9056C8.91847 22.9149 8.89047 22.9009 8.88113 22.8636C8.63847 22.1262 8.23713 21.5849 7.67713 21.2396C7.12647 20.8849 6.46847 20.7076 5.70313 20.7076C5.01247 20.7076 4.41513 20.8662 3.91113 21.1836C3.41647 21.4916 3.0338 21.9302 2.76313 22.4996C2.5018 23.0596 2.37113 23.7176 2.37113 24.4736C2.37113 25.1269 2.46447 25.7429 2.65113 26.3216C2.84713 26.9002 3.1178 27.4089 3.46313 27.8476C3.80847 28.2769 4.20513 28.6176 4.65313 28.8696C5.11047 29.1122 5.60047 29.2336 6.12313 29.2336C6.7578 29.2336 7.32247 29.0469 7.81713 28.6736C8.3118 28.3002 8.70847 27.7216 9.00713 26.9376C9.01647 26.9002 9.04447 26.8862 9.09113 26.8956C9.14713 26.9049 9.17513 26.9236 9.17513 26.9516L8.97913 28.6316C8.96047 28.7436 8.93713 28.8182 8.90913 28.8556C8.89047 28.8836 8.83913 28.9162 8.75513 28.9536C8.30713 29.1309 7.8638 29.2569 7.42513 29.3316C6.98647 29.4156 6.55247 29.4576 6.12313 29.4576C5.22713 29.4576 4.45713 29.3222 3.81313 29.0516C3.17847 28.7716 2.66047 28.4076 2.25913 27.9596C1.8578 27.5022 1.5638 27.0029 1.37713 26.4616C1.19047 25.9202 1.09713 25.3836 1.09713 24.8516C1.09713 24.1702 1.23713 23.5589 1.51713 23.0176C1.79713 22.4762 2.1798 22.0096 2.66513 21.6176C3.15047 21.2256 3.70113 20.9222 4.31713 20.7076C4.93313 20.4929 5.57713 20.3856 6.24913 20.3856ZM12.4924 21.6876V28.0996C12.4924 28.3422 12.5157 28.5289 12.5624 28.6596C12.6184 28.7809 12.7164 28.8649 12.8564 28.9116C13.0057 28.9489 13.225 28.9676 13.5144 28.9676H14.7044C15.311 28.9676 15.8057 28.7902 16.1884 28.4356C16.571 28.0809 16.823 27.6096 16.9444 27.0216C16.9444 26.9936 16.9677 26.9842 17.0144 26.9936C17.0704 26.9936 17.0984 27.0076 17.0984 27.0356C17.0704 27.3062 17.0424 27.6329 17.0144 28.0156C16.9864 28.3982 16.9724 28.7529 16.9724 29.0796C16.9724 29.2196 16.9024 29.2896 16.7624 29.2896H10.2384C10.2197 29.2896 10.2104 29.2616 10.2104 29.2056C10.2104 29.1496 10.2197 29.1216 10.2384 29.1216C10.565 29.1216 10.8077 29.0982 10.9664 29.0516C11.1344 29.0049 11.2464 28.9116 11.3024 28.7716C11.3584 28.6316 11.3864 28.4262 11.3864 28.1556V21.6736C11.3864 21.4029 11.3584 21.2022 11.3024 21.0716C11.2464 20.9316 11.1344 20.8382 10.9664 20.7916C10.8077 20.7356 10.565 20.7076 10.2384 20.7076C10.2197 20.7076 10.2104 20.6796 10.2104 20.6236C10.2104 20.5676 10.2197 20.5396 10.2384 20.5396C10.4624 20.5396 10.719 20.5489 11.0084 20.5676C11.307 20.5769 11.615 20.5816 11.9324 20.5816C12.2684 20.5816 12.5764 20.5769 12.8564 20.5676C13.1457 20.5489 13.4024 20.5396 13.6264 20.5396C13.645 20.5396 13.6544 20.5676 13.6544 20.6236C13.6544 20.6796 13.645 20.7076 13.6264 20.7076C13.2997 20.7076 13.057 20.7356 12.8984 20.7916C12.7397 20.8382 12.6324 20.9316 12.5764 21.0716C12.5204 21.2116 12.4924 21.4169 12.4924 21.6876ZM22.4199 29.4576C21.7479 29.4576 21.1366 29.3409 20.5859 29.1076C20.0446 28.8649 19.5779 28.5336 19.1859 28.1136C18.8032 27.6936 18.5046 27.2129 18.2899 26.6716C18.0846 26.1209 17.9819 25.5376 17.9819 24.9216C17.9819 24.1656 18.1266 23.5029 18.4159 22.9336C18.7146 22.3642 19.1066 21.8929 19.5919 21.5196C20.0772 21.1369 20.6092 20.8522 21.1879 20.6655C21.7666 20.4789 22.3406 20.3856 22.9099 20.3856C23.6006 20.3856 24.2166 20.5116 24.7579 20.7636C25.3086 21.0062 25.7752 21.3376 26.1579 21.7576C26.5406 22.1776 26.8299 22.6536 27.0259 23.1856C27.2312 23.7176 27.3339 24.2636 27.3339 24.8236C27.3339 25.4769 27.2032 26.0836 26.9419 26.6436C26.6806 27.2036 26.3212 27.6936 25.8639 28.1136C25.4159 28.5336 24.8932 28.8649 24.2959 29.1076C23.7079 29.3409 23.0826 29.4576 22.4199 29.4576ZM22.9099 29.1496C23.4979 29.1496 24.0299 29.0002 24.5059 28.7016C24.9912 28.3936 25.3692 27.9502 25.6399 27.3716C25.9199 26.7836 26.0599 26.0649 26.0599 25.2156C26.0599 24.3476 25.9059 23.5776 25.5979 22.9056C25.2992 22.2242 24.8699 21.6922 24.3099 21.3096C23.7592 20.9176 23.1012 20.7216 22.3359 20.7216C21.3559 20.7216 20.5952 21.0529 20.0539 21.7156C19.5219 22.3782 19.2559 23.2836 19.2559 24.4316C19.2559 25.0942 19.3399 25.7149 19.5079 26.2936C19.6852 26.8629 19.9372 27.3622 20.2639 27.7916C20.5906 28.2209 20.9779 28.5569 21.4259 28.7996C21.8739 29.0329 22.3686 29.1496 22.9099 29.1496ZM30.1706 22.1076C30.1706 22.4809 30.264 22.8029 30.4506 23.0736C30.6373 23.3442 30.88 23.5869 31.1786 23.8016C31.4773 24.0069 31.7946 24.2122 32.1306 24.4176C32.476 24.6229 32.8073 24.8422 33.1246 25.0756C33.4513 25.3089 33.7173 25.5842 33.9226 25.9016C34.1373 26.2096 34.2446 26.5876 34.2446 27.0356C34.2446 27.4929 34.1233 27.9036 33.8806 28.2676C33.6473 28.6316 33.3113 28.9209 32.8726 29.1356C32.4433 29.3502 31.9253 29.4576 31.3186 29.4576C31.076 29.4576 30.8286 29.4342 30.5766 29.3876C30.334 29.3502 30.1006 29.2942 29.8766 29.2196C29.6526 29.1449 29.4473 29.0516 29.2606 28.9396C29.2233 28.9116 29.1906 28.8789 29.1626 28.8416C29.144 28.8042 29.1346 28.7482 29.1346 28.6736L28.9946 26.6716C28.9853 26.6249 29.004 26.6016 29.0506 26.6016C29.1066 26.5922 29.1393 26.6062 29.1486 26.6436C29.2326 26.9329 29.3446 27.2269 29.4846 27.5256C29.6246 27.8242 29.7926 28.0996 29.9886 28.3516C30.1846 28.5942 30.418 28.7949 30.6886 28.9536C30.9686 29.1122 31.2906 29.1916 31.6546 29.1916C31.9066 29.1916 32.1493 29.1449 32.3826 29.0516C32.6253 28.9582 32.8213 28.8042 32.9706 28.5896C33.12 28.3656 33.1946 28.0576 33.1946 27.6656C33.1946 27.2176 33.0966 26.8396 32.9006 26.5316C32.7046 26.2236 32.4526 25.9576 32.1446 25.7336C31.8366 25.5096 31.51 25.2949 31.1646 25.0896C30.838 24.8842 30.5206 24.6696 30.2126 24.4456C29.914 24.2216 29.6713 23.9649 29.4846 23.6756C29.298 23.3769 29.2046 23.0176 29.2046 22.5976C29.2046 22.0936 29.3353 21.6782 29.5966 21.3516C29.8673 21.0249 30.208 20.7822 30.6186 20.6236C31.0386 20.4649 31.468 20.3856 31.9066 20.3856C32.196 20.3856 32.49 20.4136 32.7886 20.4696C33.0873 20.5256 33.358 20.6049 33.6006 20.7076C33.6846 20.7449 33.7406 20.7869 33.7686 20.8336C33.7966 20.8709 33.8106 20.9129 33.8106 20.9596L33.8806 22.7096C33.8806 22.7376 33.8573 22.7562 33.8106 22.7656C33.764 22.7749 33.7313 22.7609 33.7126 22.7236C33.6846 22.5649 33.624 22.3689 33.5306 22.1356C33.4373 21.8929 33.3113 21.6596 33.1526 21.4356C32.994 21.2022 32.7886 21.0109 32.5366 20.8615C32.294 20.7029 31.9953 20.6236 31.6406 20.6236C31.314 20.6236 31.0433 20.6936 30.8286 20.8336C30.614 20.9642 30.4506 21.1416 30.3386 21.3656C30.2266 21.5802 30.1706 21.8276 30.1706 22.1076ZM41.567 29.2896H35.603C35.575 29.2896 35.561 29.2616 35.561 29.2056C35.561 29.1496 35.575 29.1216 35.603 29.1216C35.9203 29.1216 36.1583 29.0982 36.317 29.0516C36.485 29.0049 36.597 28.9116 36.653 28.7716C36.709 28.6316 36.737 28.4262 36.737 28.1556V21.6736C36.737 21.4029 36.709 21.2022 36.653 21.0716C36.597 20.9316 36.485 20.8382 36.317 20.7916C36.1583 20.7356 35.9203 20.7076 35.603 20.7076C35.575 20.7076 35.561 20.6796 35.561 20.6236C35.561 20.5676 35.575 20.5396 35.603 20.5396H41.315C41.4083 20.5396 41.455 20.5816 41.455 20.6655L41.483 22.4296C41.483 22.4576 41.455 22.4762 41.399 22.4856C41.3523 22.4856 41.3243 22.4716 41.315 22.4436C41.2496 21.9302 41.0676 21.5429 40.769 21.2816C40.4703 21.0109 40.0783 20.8756 39.593 20.8756H38.879C38.599 20.8756 38.3843 20.8989 38.235 20.9456C38.0856 20.9922 37.983 21.0809 37.927 21.2116C37.871 21.3329 37.843 21.5056 37.843 21.7296V28.0996C37.843 28.3236 37.8663 28.5009 37.913 28.6316C37.969 28.7529 38.067 28.8416 38.207 28.8976C38.347 28.9442 38.543 28.9676 38.795 28.9676H39.719C40.251 28.9676 40.6896 28.8136 41.035 28.5056C41.3803 28.1882 41.6183 27.7402 41.749 27.1616C41.749 27.1336 41.777 27.1242 41.833 27.1336C41.889 27.1429 41.917 27.1616 41.917 27.1896C41.8796 27.4416 41.847 27.7449 41.819 28.0996C41.791 28.4542 41.777 28.7809 41.777 29.0796C41.777 29.2196 41.707 29.2896 41.567 29.2896ZM40.783 26.0696C40.783 25.6682 40.6663 25.3742 40.433 25.1876C40.209 24.9916 39.845 24.8936 39.341 24.8936H37.311V24.5716H39.383C39.859 24.5716 40.209 24.4922 40.433 24.3336C40.657 24.1656 40.769 23.9089 40.769 23.5636C40.769 23.5449 40.7923 23.5356 40.839 23.5356C40.895 23.5356 40.923 23.5449 40.923 23.5636C40.923 23.8529 40.9183 24.0769 40.909 24.2356C40.909 24.3942 40.909 24.5622 40.909 24.7396C40.909 24.9542 40.9136 25.1689 40.923 25.3836C40.9416 25.5982 40.951 25.8269 40.951 26.0696C40.951 26.0882 40.923 26.0976 40.867 26.0976C40.811 26.0976 40.783 26.0882 40.783 26.0696Z" fill="black"/>
<path d="M12.8242 8.98092C12.6289 9.17618 12.6289 9.49276 12.8242 9.68803C13.0194 9.88329 13.336 9.88329 13.5313 9.68803L12.8242 8.98092ZM21.4465 1.06567L21.8001 0.71212C21.6048 0.516858 21.2882 0.516858 21.093 0.71212L21.4465 1.06567ZM29.3618 9.68803C29.557 9.88329 29.8736 9.88329 30.0689 9.68803C30.2641 9.49276 30.2641 9.17618 30.0689 8.98092L29.3618 9.68803ZM13.5313 9.68803L21.8001 1.41923L21.093 0.71212L12.8242 8.98092L13.5313 9.68803ZM21.093 1.41923L29.3618 9.68803L30.0689 8.98092L21.8001 0.71212L21.093 1.41923Z" fill="black"/>
</svg>
