<svg width="89" height="72" viewBox="0 0 89 72" fill="none" xmlns="http://www.w3.org/2000/svg">
<path d="M88.3105 71.2555H0.310547V0.237793H88.3105V71.2555ZM1.35659 70.4114H87.2641V1.08197H1.35659V70.4114Z" fill="black"/>
<path d="M34.7545 8.30868H35.0185V10.7567H34.7545L33.8905 9.00468C33.2905 8.71668 32.6385 8.57268 31.9345 8.57268C31.2385 8.57268 30.6905 8.75268 30.2905 9.11268C29.8905 9.46468 29.6905 9.93268 29.6905 10.5167C29.6905 10.9487 29.8305 11.2887 30.1105 11.5367C30.3985 11.7847 30.8185 11.9807 31.3705 12.1247L33.5185 12.6887C34.2145 12.8647 34.7305 13.1687 35.0665 13.6007C35.4105 14.0247 35.5825 14.6767 35.5825 15.5567C35.5825 16.4367 35.3065 17.1287 34.7545 17.6327C34.2105 18.1367 33.4785 18.3887 32.5585 18.3887C31.8145 18.3887 31.0825 18.1767 30.3625 17.7527L29.3425 18.2687H29.0785V15.1847H29.3425L30.3745 17.4167C31.0385 17.8887 31.7585 18.1247 32.5345 18.1247C33.3185 18.1247 33.9385 17.9407 34.3945 17.5727C34.8585 17.1967 35.0905 16.6727 35.0905 16.0007C35.0905 15.5127 34.9425 15.1287 34.6465 14.8487C34.3505 14.5607 33.8705 14.3327 33.2065 14.1647L31.2145 13.6487C30.5185 13.4647 29.9945 13.1527 29.6425 12.7127C29.2905 12.2647 29.1145 11.7367 29.1145 11.1287C29.1145 10.2807 29.3625 9.60068 29.8585 9.08868C30.3545 8.56868 31.0425 8.30868 31.9225 8.30868C32.6505 8.30868 33.3025 8.43268 33.8785 8.68068L34.7545 8.30868ZM43.867 11.2247L42.967 8.84868H40.975V17.7167L42.079 17.8967V18.1487H38.551V17.8967L39.655 17.7167V8.84868H37.675L36.763 11.2247H36.415V8.54868H44.227V11.2247H43.867ZM46.035 17.8967V18.1487H43.467V17.8967L44.643 17.4167L48.111 8.30868H48.303L51.579 17.7167L52.683 17.8967V18.1487H49.155V17.8967L50.139 17.7407L49.119 14.8967H45.927L44.955 17.4167L46.035 17.8967ZM47.595 10.4207L46.023 14.6447H49.035L47.595 10.4207ZM56.3837 13.6727V17.7167L57.4997 17.8967V18.1487H53.9717V17.8967L55.0877 17.7167V14.0687L52.1717 8.98068L51.2237 8.81268V8.54868H54.8357V8.81268L53.7197 8.98068L56.2397 13.3367L58.5557 9.38868L57.1157 8.81268V8.54868H59.8037V8.81268L58.8797 9.40068L56.3837 13.6727Z" fill="black"/>
<path d="M68.6138 62.5982H67.5131V44.6162C67.5131 43.3192 66.2059 42.2637 64.5998 42.2637H24.0218C22.4157 42.2645 21.1085 43.3192 21.1085 44.6162V62.5974H20.0078V44.6162C20.0078 42.7093 21.8086 41.158 24.0218 41.158H64.5998C66.813 41.158 68.6138 42.7093 68.6138 44.6162V62.5982Z" fill="black"/>
<path d="M68.0639 57.5581H20.5586V58.6635H68.0639V57.5581Z" fill="black"/>
<path d="M42.5331 41.7116H41.4325V38.3427C41.4325 37.3203 40.6045 36.4885 39.5868 36.4885H33.4952C32.4775 36.4885 31.6495 37.3203 31.6495 38.3427V41.7116H30.5488V38.3427C30.5488 36.7105 31.8704 35.3828 33.4952 35.3828H39.5868C41.2115 35.3828 42.5331 36.7105 42.5331 38.3427V41.7116Z" fill="black"/>
<path d="M58.4491 41.7116H57.3485V38.3427C57.3485 37.3203 56.5205 36.4885 55.5028 36.4885H49.4112C48.3935 36.4885 47.5655 37.3203 47.5655 38.3427V41.7116H46.4648V38.3427C46.4648 36.7105 47.7865 35.3828 49.4112 35.3828H55.5028C57.1275 35.3828 58.4491 36.7105 58.4491 38.3427V41.7116Z" fill="black"/>
<path d="M61.682 41.7117H60.5814V27.6694H27.9034V41.7117H26.8027V26.5637H61.682V41.7117Z" fill="black"/>
</svg>
