<svg width="69" height="61" viewBox="0 0 69 61" fill="none" xmlns="http://www.w3.org/2000/svg">
<path d="M21.4075 22.0063C20.9808 22.0063 20.4475 21.9863 19.8075 21.9463C19.1675 21.9063 18.5808 21.8863 18.0475 21.8863C17.5675 21.8863 17.1075 21.8929 16.6675 21.9063C16.2275 21.9196 15.8341 21.9263 15.4875 21.9263C15.4608 21.9263 15.4475 21.8863 15.4475 21.8063C15.4475 21.7263 15.4608 21.6863 15.4875 21.6863C15.9008 21.6863 16.2075 21.6529 16.4075 21.5863C16.6208 21.5196 16.7608 21.3863 16.8275 21.1863C16.9075 20.9863 16.9475 20.6929 16.9475 20.3063V11.0463C16.9475 10.6596 16.9141 10.3729 16.8475 10.1863C16.7808 9.98627 16.6408 9.85294 16.4275 9.78627C16.2275 9.70627 15.9275 9.66627 15.5275 9.66627C15.4875 9.66627 15.4675 9.62627 15.4675 9.54627C15.4675 9.46627 15.4875 9.42627 15.5275 9.42627C15.8741 9.42627 16.2608 9.4396 16.6875 9.46627C17.1141 9.4796 17.5741 9.48627 18.0675 9.48627C18.5475 9.48627 19.0741 9.47294 19.6475 9.44627C20.2208 9.40627 20.7141 9.38627 21.1275 9.38627C22.5141 9.38627 23.7208 9.65294 24.7475 10.1863C25.7741 10.7196 26.5741 11.4463 27.1475 12.3663C27.7208 13.2863 28.0075 14.3196 28.0075 15.4663C28.0075 16.4663 27.8341 17.3729 27.4875 18.1863C27.1408 18.9863 26.6608 19.6729 26.0475 20.2463C25.4341 20.8063 24.7275 21.2396 23.9275 21.5463C23.1408 21.8529 22.3008 22.0063 21.4075 22.0063ZM21.2075 21.5463C22.0475 21.5463 22.7941 21.3329 23.4475 20.9063C24.1008 20.4663 24.6141 19.8263 24.9875 18.9863C25.3608 18.1463 25.5475 17.1196 25.5475 15.9063C25.5475 14.7729 25.3741 13.7463 25.0275 12.8263C24.6808 11.9063 24.1941 11.1796 23.5675 10.6463C22.9408 10.0996 22.1941 9.82627 21.3275 9.82627C20.5541 9.82627 20.0008 9.8996 19.6675 10.0463C19.3341 10.1929 19.1675 10.5396 19.1675 11.0863V20.0863C19.1675 20.5796 19.2941 20.9463 19.5475 21.1863C19.8141 21.4263 20.3675 21.5463 21.2075 21.5463ZM29.769 21.9263C29.729 21.9263 29.709 21.8863 29.709 21.8063C29.709 21.7263 29.729 21.6863 29.769 21.6863C30.1823 21.6863 30.4623 21.5929 30.609 21.4063C30.7557 21.2063 30.829 20.8396 30.829 20.3063V16.7263C30.829 16.2863 30.7823 15.9663 30.689 15.7663C30.609 15.5529 30.4557 15.4463 30.229 15.4463C30.1357 15.4463 30.0223 15.4663 29.889 15.5063C29.769 15.5463 29.6357 15.5996 29.489 15.6663C29.4357 15.6796 29.389 15.6463 29.349 15.5663C29.3223 15.4863 29.329 15.4396 29.369 15.4263L32.389 14.0263C32.4157 14.0129 32.4357 14.0063 32.449 14.0063C32.5157 14.0063 32.5823 14.0396 32.649 14.1063C32.7157 14.1729 32.749 14.2329 32.749 14.2863C32.749 14.4463 32.7423 14.7129 32.729 15.0863C32.7157 15.4596 32.709 15.9929 32.709 16.6863V20.3063C32.709 20.8396 32.7823 21.2063 32.929 21.4063C33.089 21.5929 33.3757 21.6863 33.789 21.6863C33.829 21.6863 33.849 21.7263 33.849 21.8063C33.849 21.8863 33.829 21.9263 33.789 21.9263C33.5223 21.9263 33.2157 21.9196 32.869 21.9063C32.5223 21.8929 32.1557 21.8863 31.769 21.8863C31.3957 21.8863 31.0357 21.8929 30.689 21.9063C30.3423 21.9196 30.0357 21.9263 29.769 21.9263ZM31.689 12.0263C31.3157 12.0263 31.0157 11.9196 30.789 11.7063C30.5757 11.4929 30.469 11.1929 30.469 10.8063C30.469 10.4596 30.5757 10.1863 30.789 9.98627C31.0157 9.77294 31.3157 9.66627 31.689 9.66627C32.0623 9.66627 32.349 9.77294 32.549 9.98627C32.749 10.1863 32.849 10.4596 32.849 10.8063C32.849 11.6196 32.4623 12.0263 31.689 12.0263ZM40.4029 21.9263C40.3629 21.9263 40.3429 21.8863 40.3429 21.8063C40.3429 21.7263 40.3629 21.6863 40.4029 21.6863C40.8163 21.6863 41.0963 21.5929 41.2429 21.4063C41.3896 21.2063 41.4629 20.8396 41.4629 20.3063V17.4263C41.4629 16.7063 41.3296 16.1729 41.0629 15.8263C40.8096 15.4796 40.4029 15.3063 39.8429 15.3063C39.4429 15.3063 39.0296 15.4063 38.6029 15.6063C38.1896 15.8063 37.8563 16.0796 37.6029 16.4263L37.5029 16.1863C37.9696 15.5196 38.4963 14.9863 39.0829 14.5863C39.6696 14.1729 40.3096 13.9663 41.0029 13.9663C41.7496 13.9663 42.3229 14.1996 42.7229 14.6663C43.1363 15.1329 43.3429 15.7329 43.3429 16.4663V20.3063C43.3429 20.8396 43.4163 21.2063 43.5629 21.4063C43.7229 21.5929 44.0096 21.6863 44.4229 21.6863C44.4629 21.6863 44.4829 21.7263 44.4829 21.8063C44.4829 21.8863 44.4629 21.9263 44.4229 21.9263C44.1563 21.9263 43.8496 21.9196 43.5029 21.9063C43.1563 21.8929 42.7896 21.8863 42.4029 21.8863C42.0296 21.8863 41.6696 21.8929 41.3229 21.9063C40.9763 21.9196 40.6696 21.9263 40.4029 21.9263ZM35.0229 21.9263C34.9829 21.9263 34.9629 21.8863 34.9629 21.8063C34.9629 21.7263 34.9829 21.6863 35.0229 21.6863C35.4363 21.6863 35.7163 21.5929 35.8629 21.4063C36.0096 21.2063 36.0829 20.8396 36.0829 20.3063V16.5463C36.0829 16.1329 36.0363 15.8329 35.9429 15.6463C35.8496 15.4463 35.6896 15.3463 35.4629 15.3463C35.3429 15.3463 35.2029 15.3729 35.0429 15.4263C34.8829 15.4663 34.7029 15.5329 34.5029 15.6263C34.4496 15.6529 34.4096 15.6263 34.3829 15.5463C34.3563 15.4663 34.3563 15.4196 34.3829 15.4063L37.1629 14.0463C37.2429 14.0196 37.2896 14.0063 37.3029 14.0063C37.4496 14.0063 37.5963 14.1663 37.7429 14.4863C37.8896 14.8063 37.9629 15.2663 37.9629 15.8663V20.3063C37.9629 20.8396 38.0363 21.2063 38.1829 21.4063C38.3429 21.5929 38.6296 21.6863 39.0429 21.6863C39.0829 21.6863 39.1029 21.7263 39.1029 21.8063C39.1029 21.8863 39.0829 21.9263 39.0429 21.9263C38.7763 21.9263 38.4696 21.9196 38.1229 21.9063C37.7763 21.8929 37.4096 21.8863 37.0229 21.8863C36.6496 21.8863 36.2896 21.8929 35.9429 21.9063C35.5963 21.9196 35.2896 21.9263 35.0229 21.9263ZM49.4703 22.1663C48.6036 22.1663 47.8636 21.9863 47.2503 21.6263C46.6503 21.2663 46.1903 20.7929 45.8703 20.2063C45.5636 19.6063 45.4103 18.9729 45.4103 18.3063C45.4103 17.5196 45.6103 16.8063 46.0103 16.1663C46.4103 15.5129 46.9503 14.9929 47.6303 14.6063C48.3236 14.2196 49.1036 14.0263 49.9703 14.0263C50.7969 14.0263 51.4303 14.2063 51.8703 14.5663C52.3103 14.9129 52.5303 15.3929 52.5303 16.0063C52.5303 16.1529 52.5169 16.2863 52.4903 16.4063C52.4636 16.5263 52.4036 16.5863 52.3103 16.5863H50.3903C50.4169 15.9596 50.3436 15.4463 50.1703 15.0463C49.9969 14.6329 49.6836 14.4263 49.2303 14.4263C48.6969 14.4263 48.2636 14.7063 47.9303 15.2663C47.5969 15.8129 47.4303 16.5463 47.4303 17.4663C47.4303 18.2129 47.5503 18.8663 47.7903 19.4263C48.0303 19.9863 48.3769 20.4196 48.8303 20.7263C49.2836 21.0329 49.8303 21.1863 50.4703 21.1863C50.7903 21.1863 51.1303 21.1396 51.4903 21.0463C51.8636 20.9529 52.1969 20.8129 52.4903 20.6263C52.5169 20.5996 52.5503 20.6129 52.5903 20.6663C52.6436 20.7196 52.6569 20.7663 52.6303 20.8063C52.1369 21.2996 51.6303 21.6529 51.1103 21.8663C50.6036 22.0663 50.0569 22.1663 49.4703 22.1663ZM46.7303 16.6263L46.7103 16.2463L51.0903 16.1463V16.5863L46.7303 16.6263Z" fill="black"/>
<path d="M45.5241 28.0313C42.8971 29.1477 41.4577 31.0661 41.1806 33.7573C41.1768 33.7973 41.1729 33.8373 41.171 33.861C37.2925 30.377 32.9937 29.8369 28.2454 32.2135V31.9826C28.2454 30.8988 28.2454 29.8169 28.2454 28.7332C28.2454 28.2204 27.947 27.8912 27.4821 27.8876C27.0171 27.884 26.7071 28.2167 26.7071 28.7241C26.7071 30.1115 26.7071 31.5007 26.7071 32.8881V33.1682H25.1689V32.91C25.1689 31.4898 25.1728 30.0697 25.167 28.6495C25.1651 28.0913 24.6091 27.7312 24.0937 27.9513C23.7625 28.0931 23.6269 28.3513 23.6288 28.6895C23.6327 30.0933 23.6307 31.4971 23.6307 32.9027V33.1736H22.0886V32.9209C22.0886 31.5007 22.0906 30.0806 22.0867 28.6604C22.0848 28.0967 21.5423 27.7349 21.0231 27.9458C20.7209 28.0694 20.5524 28.2967 20.5524 28.6059C20.5485 30.6679 20.5272 32.7318 20.564 34.792C20.5834 35.8557 21.0735 36.7594 21.9085 37.485C22.0402 37.5995 22.0925 37.7086 22.0925 37.8741C22.0867 41.9673 22.0886 46.0586 22.0886 50.1499C22.0886 51.4501 22.6989 52.1883 24.0453 52.5175C24.0608 52.5211 24.0744 52.532 24.0879 52.5411H24.704C24.859 52.4993 25.0159 52.4647 25.167 52.4138C26.0833 52.1065 26.6936 51.3119 26.7013 50.3918C26.711 49.3244 26.7033 48.257 26.7033 47.1914V46.9151C29.0513 48.9298 31.7673 49.8335 34.8903 49.4771C38.0151 49.1207 40.4154 47.6206 42.1939 45.1203V45.4313C42.1939 47.0278 42.1939 48.6243 42.1939 50.2209C42.1939 51.4392 42.8583 52.2229 44.1253 52.5065C44.1486 52.512 44.1699 52.5284 44.1931 52.5393H44.8092C44.9642 52.4975 45.123 52.4647 45.2722 52.412C46.0568 52.1338 46.5469 51.6064 46.7542 50.8446C46.7697 50.7827 46.791 50.7227 46.8104 50.6609V28.4168C46.4578 27.8567 46.1692 27.7567 45.5241 28.0313ZM26.0523 36.2212C25.9187 36.3649 25.7676 36.5031 25.601 36.6085C25.289 36.8085 25.1631 37.0686 25.1631 37.4232C25.1709 41.6763 25.167 45.9295 25.167 50.1827C25.167 50.2863 25.1728 50.3936 25.1554 50.4954C25.0876 50.8609 24.7311 51.1209 24.3475 51.0973C23.9601 51.0718 23.654 50.7755 23.6307 50.4009C23.6269 50.3209 23.6288 50.2409 23.6288 50.1608C23.6288 45.924 23.6269 41.6854 23.6327 37.4486C23.6327 37.0758 23.4971 36.814 23.1735 36.5958C22.48 36.123 22.1429 35.4629 22.0828 34.6392H26.6975C26.6839 35.2484 26.465 35.7703 26.0523 36.2212ZM41.0392 44.0966C39.5378 46.4405 37.3564 47.8224 34.4505 48.0624C31.3063 48.3207 28.7665 47.1969 26.8486 44.8439C26.7633 44.7403 26.713 44.5839 26.711 44.453C26.6994 43.3547 26.7052 42.2546 26.7052 41.1563C26.7052 40.0489 26.7033 38.9415 26.711 37.8359C26.711 37.7377 26.7556 37.6104 26.8292 37.5486C27.7959 36.7085 28.2686 35.6739 28.2376 34.4428C28.2299 34.1755 28.319 34.0101 28.5476 33.8464C32.6159 30.9497 38.4433 32.039 40.9985 36.1903C41.1032 36.3594 41.1613 36.5776 41.1632 36.774C41.1748 38.8197 41.171 40.8653 41.171 42.911C41.171 43.0401 41.1458 43.1801 41.1942 43.2929C41.324 43.5983 41.202 43.8402 41.0392 44.0966ZM42.713 43.0528C42.684 43.0146 42.7072 42.9437 42.7072 42.8874C42.7072 39.9998 42.6956 37.1104 42.7111 34.2228C42.7208 32.3881 43.5461 30.9334 45.1385 29.8642C45.1657 29.846 45.1947 29.8315 45.2606 29.7951V43.2947C44.4837 43.2947 43.7166 43.3019 42.9513 43.2838C42.868 43.2819 42.7809 43.1419 42.713 43.0528ZM45.2703 50.33C45.2683 50.9137 44.6833 51.2719 44.1583 51.0155C43.856 50.8682 43.7321 50.6209 43.7321 50.3045C43.734 48.8843 43.7321 47.466 43.7321 46.0477V44.7512H45.2548C45.2606 44.8039 45.2703 44.8494 45.2703 44.8948C45.2722 46.7059 45.2741 48.517 45.2703 50.33Z" fill="black"/>
<path d="M33.6891 35.1118C30.7231 35.1082 28.3015 37.3721 28.2938 40.1523C28.288 42.9363 30.696 45.2129 33.6581 45.222C36.6357 45.2311 39.0651 42.9617 39.0651 40.1687C39.0671 37.3848 36.6532 35.1136 33.6891 35.1118ZM33.6756 43.7782C31.5581 43.7782 29.832 42.1526 29.832 40.1633C29.832 38.174 31.562 36.5538 33.6814 36.5556C35.8008 36.5556 37.5269 38.1794 37.525 40.1687C37.5269 42.158 35.7969 43.7782 33.6756 43.7782Z" fill="black"/>
<rect x="0.626953" y="1.13794" width="66.9627" height="58.4082" stroke="black"/>
</svg>
