<svg width="68" height="61" viewBox="0 0 68 61" fill="none" xmlns="http://www.w3.org/2000/svg">
<rect x="0.536865" y="1.13794" width="66.9627" height="58.4082" stroke="black"/>
<path d="M19.8325 10.8821C19.8325 11.3887 19.9592 11.8354 20.2125 12.2221C20.4792 12.5954 20.8192 12.9354 21.2325 13.2421C21.6592 13.5487 22.1059 13.8554 22.5725 14.1621C23.0792 14.4821 23.5592 14.8221 24.0125 15.1821C24.4792 15.5287 24.8592 15.9354 25.1525 16.4021C25.4592 16.8554 25.6125 17.4021 25.6125 18.0421C25.6125 18.7487 25.4192 19.3687 25.0325 19.9021C24.6592 20.4354 24.1459 20.8554 23.4925 21.1621C22.8525 21.4554 22.1192 21.6021 21.2925 21.6021C20.8925 21.6021 20.4725 21.5621 20.0325 21.4821C19.6059 21.4021 19.2125 21.3021 18.8525 21.1821C18.5059 21.0621 18.2525 20.9354 18.0925 20.8021C18.0392 20.7621 17.9925 20.7221 17.9525 20.6821C17.9125 20.6287 17.8925 20.5421 17.8925 20.4221L17.8325 17.2421C17.8192 17.1754 17.8459 17.1421 17.9125 17.1421C17.9925 17.1287 18.0392 17.1487 18.0525 17.2021C18.2525 17.6154 18.4725 18.0554 18.7125 18.5221C18.9525 18.9754 19.2192 19.3954 19.5125 19.7821C19.8192 20.1687 20.1592 20.4887 20.5325 20.7421C20.9059 20.9821 21.3325 21.1021 21.8125 21.1021C22.1192 21.1021 22.4125 21.0487 22.6925 20.9421C22.9725 20.8354 23.1992 20.6421 23.3725 20.3621C23.5592 20.0821 23.6525 19.6954 23.6525 19.2021C23.6525 18.5754 23.5125 18.0421 23.2325 17.6021C22.9525 17.1487 22.5925 16.7554 22.1525 16.4221C21.7125 16.0754 21.2525 15.7487 20.7725 15.4421C20.3059 15.1354 19.8592 14.8221 19.4325 14.5021C19.0059 14.1687 18.6592 13.7954 18.3925 13.3821C18.1259 12.9554 17.9925 12.4487 17.9925 11.8621C17.9925 11.1154 18.1992 10.5087 18.6125 10.0421C19.0392 9.56206 19.5725 9.20873 20.2125 8.98206C20.8659 8.75539 21.5259 8.64206 22.1925 8.64206C22.6725 8.64206 23.1525 8.68873 23.6325 8.78206C24.1125 8.86206 24.4925 8.96206 24.7725 9.08206C24.9059 9.13539 24.9859 9.19539 25.0125 9.26206C25.0525 9.32873 25.0725 9.40206 25.0725 9.48206V12.4221C25.0725 12.4621 25.0392 12.4954 24.9725 12.5221C24.9192 12.5354 24.8792 12.5221 24.8525 12.4821C24.7725 12.3221 24.6592 12.0621 24.5125 11.7021C24.3659 11.3287 24.1725 10.9421 23.9325 10.5421C23.6925 10.1421 23.3859 9.80206 23.0125 9.52206C22.6392 9.22873 22.1859 9.08206 21.6525 9.08206C21.3192 9.08206 21.0125 9.14873 20.7325 9.28206C20.4659 9.41539 20.2459 9.61539 20.0725 9.88206C19.9125 10.1354 19.8325 10.4687 19.8325 10.8821ZM30.3255 21.6021C30.0055 21.6021 29.6788 21.5487 29.3455 21.4421C29.0255 21.3354 28.7522 21.1487 28.5255 20.8821C28.3122 20.6154 28.2055 20.2421 28.2055 19.7621V15.3221C28.2055 15.0421 28.1722 14.8221 28.1055 14.6621C28.0388 14.5021 27.9322 14.3887 27.7855 14.3221C27.6388 14.2554 27.4388 14.2221 27.1855 14.2221C27.1322 14.2221 27.1055 14.1621 27.1055 14.0421C27.1055 13.9221 27.1322 13.8621 27.1855 13.8621C27.8655 13.8354 28.4188 13.6887 28.8455 13.4221C29.2722 13.1421 29.5922 12.7354 29.8055 12.2021C29.8322 12.1487 29.8855 12.1221 29.9655 12.1221C30.0588 12.1221 30.1055 12.1487 30.1055 12.2021V19.1021C30.1055 19.6354 30.2388 20.0154 30.5055 20.2421C30.7855 20.4687 31.1255 20.5821 31.5255 20.5821C31.8322 20.5821 32.1188 20.5221 32.3855 20.4021C32.6655 20.2687 32.8988 20.1287 33.0855 19.9821C33.1255 19.9421 33.1722 19.9554 33.2255 20.0221C33.2922 20.0754 33.2988 20.1221 33.2455 20.1621C32.7522 20.6554 32.2722 21.0221 31.8055 21.2621C31.3522 21.4887 30.8588 21.6021 30.3255 21.6021ZM32.6255 14.6621C32.0788 14.5421 31.5455 14.4621 31.0255 14.4221C30.5188 14.3687 29.9788 14.3421 29.4055 14.3421V13.8221C29.9522 13.8221 30.4855 13.8021 31.0055 13.7621C31.5388 13.7221 32.1055 13.6754 32.7055 13.6221C32.7322 13.6221 32.7588 13.6754 32.7855 13.7821C32.8255 13.8754 32.8455 13.9821 32.8455 14.1021C32.8455 14.2354 32.8188 14.3687 32.7655 14.5021C32.7255 14.6221 32.6788 14.6754 32.6255 14.6621ZM39.7443 21.4821C39.6909 21.5087 39.6243 21.5221 39.5443 21.5221C39.3043 21.5221 39.0643 21.3621 38.8243 21.0421C38.5843 20.7221 38.4643 20.2621 38.4643 19.6621V16.2621C38.4643 15.7421 38.4309 15.3087 38.3643 14.9621C38.2976 14.6154 38.1909 14.3554 38.0443 14.1821C37.8976 14.0087 37.6976 13.9221 37.4443 13.9221C37.2443 13.9221 37.0643 13.9754 36.9043 14.0821C36.7443 14.1754 36.6176 14.3354 36.5243 14.5621C36.4309 14.7754 36.3709 15.0754 36.3443 15.4621C36.3043 15.8487 36.1843 16.1354 35.9843 16.3221C35.7843 16.4954 35.5109 16.5821 35.1643 16.5821C34.8309 16.5821 34.5909 16.5087 34.4443 16.3621C34.2976 16.2154 34.2243 16.0154 34.2243 15.7621C34.2243 15.4687 34.3643 15.1887 34.6443 14.9221C34.9243 14.6421 35.2709 14.3954 35.6843 14.1821C36.1109 13.9554 36.5509 13.7821 37.0043 13.6621C37.4576 13.5287 37.8643 13.4621 38.2243 13.4621C38.8109 13.4621 39.3109 13.6421 39.7243 14.0021C40.1376 14.3487 40.3443 14.9021 40.3443 15.6621V19.2021C40.3443 19.5887 40.4109 19.8887 40.5443 20.1021C40.6909 20.3154 40.8909 20.4221 41.1443 20.4221C41.3309 20.4221 41.5243 20.3754 41.7243 20.2821C41.7776 20.2554 41.8176 20.2821 41.8443 20.3621C41.8843 20.4287 41.8709 20.4754 41.8043 20.5021L39.7443 21.4821ZM35.5443 21.5021C35.1309 21.5021 34.7976 21.3954 34.5443 21.1821C34.2909 20.9554 34.1643 20.6354 34.1643 20.2221C34.1643 19.7421 34.3443 19.4021 34.7043 19.2021C35.0776 18.9887 35.6509 18.7554 36.4243 18.5021L38.6643 17.7821L38.7443 18.0821L37.3643 18.5821C37.0043 18.7154 36.7443 18.8621 36.5843 19.0221C36.4376 19.1821 36.3643 19.3754 36.3643 19.6021C36.3643 19.8821 36.4443 20.1021 36.6043 20.2621C36.7643 20.4221 36.9643 20.5021 37.2043 20.5021C37.3109 20.5021 37.4509 20.4821 37.6243 20.4421C37.8109 20.3887 38.0109 20.3154 38.2243 20.2221L39.3243 19.6221L39.3443 19.9621L37.6243 20.9021C37.2909 21.0754 36.9376 21.2221 36.5643 21.3421C36.1909 21.4487 35.8509 21.5021 35.5443 21.5021ZM50.485 13.6421C50.5117 13.6421 50.525 13.6821 50.525 13.7621C50.525 13.8421 50.5117 13.8821 50.485 13.8821C50.0317 13.8821 49.6517 14.0754 49.345 14.4621C49.0384 14.8487 48.765 15.3687 48.525 16.0221L46.305 21.9221C45.825 23.2021 45.3584 24.2087 44.905 24.9421C44.465 25.6887 44.0184 26.2154 43.565 26.5221C43.1117 26.8287 42.6317 26.9821 42.125 26.9821C41.7384 26.9821 41.4384 26.8954 41.225 26.7221C40.9984 26.5621 40.885 26.3221 40.885 26.0021C40.885 25.6821 40.985 25.4421 41.185 25.2821C41.3717 25.1354 41.5917 25.0621 41.845 25.0621C42.0717 25.0621 42.2517 25.1021 42.385 25.1821C42.5184 25.2754 42.6517 25.3621 42.785 25.4421C42.9184 25.5354 43.0917 25.5821 43.305 25.5821C43.625 25.5821 43.9184 25.4421 44.185 25.1621C44.4517 24.8954 44.7384 24.4287 45.045 23.7621C45.3517 23.1087 45.7117 22.2087 46.125 21.0621L46.065 22.1621L42.665 15.3021C42.3717 14.7154 42.1384 14.3354 41.965 14.1621C41.805 13.9754 41.605 13.8821 41.365 13.8821C41.325 13.8821 41.305 13.8421 41.305 13.7621C41.305 13.6821 41.325 13.6421 41.365 13.6421C41.6317 13.6421 41.9117 13.6487 42.205 13.6621C42.5117 13.6754 42.7984 13.6821 43.065 13.6821C43.545 13.6821 43.965 13.6754 44.325 13.6621C44.685 13.6487 45.0117 13.6421 45.305 13.6421C45.345 13.6421 45.365 13.6821 45.365 13.7621C45.365 13.8421 45.345 13.8821 45.305 13.8821C44.8384 13.8821 44.5384 13.9354 44.405 14.0421C44.2717 14.1487 44.2784 14.3554 44.425 14.6621L46.965 19.8621L46.245 21.0421L47.985 16.0021C48.2117 15.3487 48.225 14.8354 48.025 14.4621C47.8384 14.0754 47.4717 13.8821 46.925 13.8821C46.8984 13.8821 46.885 13.8421 46.885 13.7621C46.885 13.6821 46.8984 13.6421 46.925 13.6421C47.245 13.6421 47.545 13.6487 47.825 13.6621C48.1184 13.6754 48.4917 13.6821 48.945 13.6821C49.265 13.6821 49.525 13.6754 49.725 13.6621C49.9384 13.6487 50.1917 13.6421 50.485 13.6421Z" fill="black"/>
<path d="M49.7253 43.3387C49.6181 43.3037 49.6551 43.2004 49.6376 43.1303C49.283 41.6828 48.4181 40.6892 47.0076 40.1924C46.8147 40.1243 46.8089 40.0054 46.8089 39.8437C46.8128 37.6774 46.8089 35.509 46.8128 33.3427C46.8128 32.6511 46.6744 32.0062 46.242 31.4471C45.6341 30.662 44.8256 30.323 43.8438 30.325C37.2901 30.3289 30.7365 30.3269 24.1828 30.3269C24.0406 30.3269 23.8964 30.3308 23.7542 30.3444C23.01 30.4243 22.3944 30.7458 21.9035 31.3107C21.395 31.8991 21.2216 32.5926 21.2235 33.3524C21.2274 35.509 21.2235 37.6657 21.2294 39.8242C21.2294 40.0171 21.2002 40.1379 20.9898 40.208C19.3806 40.7438 18.3071 42.2672 18.3091 44.0264C18.313 45.733 18.3091 47.4396 18.311 49.1482C18.311 49.8164 18.6812 50.1866 19.3572 50.1944C19.8267 50.2002 20.2982 50.1963 20.7677 50.1963C21.2255 50.1963 21.2235 50.1963 21.2255 50.6678C21.2255 51.0554 21.2138 51.4451 21.2294 51.8328C21.2528 52.427 21.6463 52.8088 22.1957 52.7913C22.7178 52.7757 23.086 52.3685 23.0918 51.788C23.0977 51.3594 23.1113 50.9288 23.086 50.5002C23.0724 50.2411 23.1503 50.1866 23.4036 50.1866C26.1018 50.1963 28.8019 50.1924 31.5001 50.1924C35.8757 50.1924 40.2513 50.1944 44.6269 50.1866C44.8704 50.1866 44.9659 50.2236 44.9503 50.4944C44.923 50.9327 44.9425 51.373 44.9425 51.8133C44.9425 52.0685 45.0127 52.2984 45.188 52.4873C45.449 52.764 45.7705 52.8633 46.1368 52.7542C46.5108 52.6413 46.7641 52.386 46.7874 51.9886C46.8186 51.4685 46.8147 50.9463 46.8069 50.4262C46.803 50.2333 46.8615 50.1846 47.0485 50.1885C47.5394 50.2021 48.0304 50.1749 48.5213 50.1982C49.096 50.2255 49.509 50.021 49.7272 49.4735V43.6446C49.6883 43.6037 49.6883 43.5628 49.7272 43.5219V43.3387H49.7253ZM47.5414 48.3261C43.0333 48.3144 38.5253 48.3183 34.0172 48.3183C29.5286 48.3183 25.042 48.3144 20.5553 48.3261C20.2222 48.328 20.1618 48.2267 20.1657 47.9228C20.1832 46.6448 20.1676 45.3668 20.1754 44.0888C20.1813 42.9686 20.7618 42.1854 21.7768 41.9049C22.0145 41.8386 22.26 41.8328 22.5054 41.8328C30.1812 41.8328 37.859 41.8328 45.5348 41.8328C46.7095 41.8328 47.5005 42.3939 47.7869 43.4264C47.8531 43.6641 47.8648 43.9096 47.8648 44.155C47.8648 45.433 47.857 46.711 47.8726 47.9871C47.8726 48.2501 47.82 48.328 47.5414 48.3261ZM27.0642 32.1816H43.7502C44.6152 32.1816 44.9425 32.503 44.9425 33.3563C44.9425 35.4623 44.9386 37.5683 44.9484 39.6742C44.9503 39.9119 44.8919 39.982 44.6503 39.9723C44.099 39.9528 43.5457 39.9587 42.9944 39.9704C42.8093 39.9742 42.7469 39.9275 42.7528 39.7346C42.7664 39.2339 42.7606 38.7333 42.7567 38.2326C42.743 36.4149 41.4884 35.1467 39.6727 35.1447C38.385 35.1428 37.0972 35.1038 35.8095 35.1701C35.2095 35.2012 34.6796 35.4175 34.214 35.7954C34.0932 35.8928 34.0035 35.9532 33.8535 35.8207C33.3236 35.359 32.6866 35.1525 31.995 35.1467C30.6663 35.1369 29.3357 35.1077 28.009 35.1701C26.5226 35.2402 25.3693 36.4539 25.2952 37.9443C25.266 38.5248 25.2738 39.1093 25.2835 39.6918C25.2874 39.8944 25.2504 39.9781 25.0225 39.9704C24.4614 39.9528 23.8984 39.9528 23.3354 39.9704C23.125 39.9762 23.0899 39.9041 23.0899 39.7132C23.0977 37.5468 23.0938 35.3785 23.0957 33.2121C23.0957 32.5615 23.4698 32.1855 24.1224 32.1816C25.1024 32.1777 26.0842 32.1816 27.0642 32.1816ZM34.9465 38.2014C34.9543 37.4572 35.3906 37.0169 36.1271 37.015C37.3232 37.0111 38.5194 37.0111 39.7136 37.015C40.4539 37.0169 40.8864 37.4533 40.8923 38.1995C40.8962 38.7001 40.8806 39.2028 40.8981 39.7015C40.9059 39.9119 40.8553 39.9762 40.6351 39.9723C39.7253 39.9587 38.8155 39.9665 37.9077 39.9665C36.9979 39.9665 36.0881 39.9606 35.1783 39.9704C34.9913 39.9723 34.9348 39.9255 34.9406 39.7327C34.9543 39.2242 34.9406 38.7118 34.9465 38.2014ZM27.144 38.1352C27.1538 37.4708 27.5999 37.0208 28.2642 37.0169C29.4994 37.0111 30.7365 37.0111 31.9736 37.0169C32.595 37.0208 33.0489 37.4338 33.0801 38.0534C33.1093 38.6339 33.0821 39.2184 33.0938 39.7989C33.0977 40.0074 32.9671 39.9645 32.8522 39.9645C31.9326 39.9665 31.0131 39.9645 30.0936 39.9645C29.2033 39.9645 28.3149 39.9567 27.4265 39.9684C27.2122 39.9723 27.1246 39.9392 27.1362 39.6937C27.1596 39.1774 27.1382 38.6553 27.144 38.1352Z" fill="black"/>
</svg>

