<svg width="88" height="72" viewBox="0 0 88 72" fill="none" xmlns="http://www.w3.org/2000/svg">
<path d="M87.3105 71.2555H0.810547V0.237793H87.3105V71.2555ZM1.83876 70.4114H86.2819V1.08197H1.83876V70.4114Z" fill="black"/>
<path d="M28.0165 10.2647H32.6125C33.2685 10.2647 33.8725 10.3807 34.4245 10.6127C34.9845 10.8447 35.4645 11.1687 35.8645 11.5847C36.7125 12.4807 37.1365 13.6407 37.1365 15.0647C37.1365 16.5047 36.7165 17.6647 35.8765 18.5447C35.0445 19.4247 33.9565 19.8647 32.6125 19.8647H28.0165V19.6127L29.1205 19.4327V10.6967L28.0165 10.5287V10.2647ZM32.6125 10.5647H30.4405V19.5767H32.6125C33.5005 19.5767 34.2205 19.2687 34.7725 18.6527C35.3325 18.0287 35.6125 17.1407 35.6125 15.9887V14.1407C35.6125 12.9887 35.3365 12.1047 34.7845 11.4887C34.2325 10.8727 33.5085 10.5647 32.6125 10.5647ZM41.5992 19.6127V19.8647H38.0712V19.6127L39.1752 19.4327V10.6967L38.0712 10.5287V10.2647H41.5992V10.5287L40.4952 10.6967V19.4327L41.5992 19.6127ZM43.6646 19.1327V10.9967L42.5486 10.5287V10.2647H44.7806L49.9526 17.5127V10.9967L48.8366 10.5287V10.2647H51.3926V10.5287L50.2526 10.9967V19.8647H49.9526L43.9646 11.4527V19.1327L45.1166 19.6127V19.8647H42.5486V19.6127L43.6646 19.1327ZM56.9195 13.1447H57.2315V16.9367H56.9195L56.1995 15.1727H54.6515V19.5767H58.4195L59.4035 16.9367H59.7155V19.8647H52.2275V19.6127L53.3315 19.4327V10.6967L52.2275 10.5287V10.2647H59.4515V13.0127H59.1275L58.2035 10.5647H54.6515V14.8847H56.2115L56.9195 13.1447Z" fill="black"/>
<path d="M44.172 26.9436C34.0868 26.8711 25.8932 35.2246 25.8965 45.4377C25.8841 55.569 33.9231 63.887 43.9091 63.952C53.9918 64.0178 62.1177 55.7166 62.1731 45.5667C62.2293 35.2347 54.0423 27.0153 44.172 26.9436ZM44.0505 62.972C34.5415 62.9762 26.8481 55.0655 26.8638 45.4883C26.8795 35.7238 34.5655 27.9033 44.096 27.932C53.5148 27.9354 61.2496 35.8368 61.2116 45.5186C61.1744 55.1439 53.4545 62.9686 44.0505 62.972Z" fill="black"/>
<path d="M25.8069 27.4496V39.8445H23.6178V63.4485H22.6612V39.8554H20.5605V27.4487H21.4881V38.8316H22.6431V27.458H23.5988V38.8282H24.8446V27.4496H25.8069Z" fill="black"/>
<path d="M67.5502 31.7009C67.5486 31.1249 67.5056 30.5455 67.432 29.9746C67.2179 28.3258 66.3085 27.5153 64.5566 27.512V63.4425H65.5032V62.9981C65.5032 58.1117 65.5049 53.2252 65.4991 48.3388C65.4991 48.0967 65.5479 47.9635 65.7885 47.8412C66.4763 47.4887 66.9525 46.9253 67.1823 46.1612C67.5064 45.0834 67.5469 43.9702 67.551 42.8595C67.5643 39.1394 67.561 35.4202 67.5502 31.7009ZM66.5606 43.5173C66.5515 44.2561 66.4184 44.9957 66.3035 45.7286C66.2299 46.2009 65.9464 46.5601 65.5107 46.8747V28.6691C65.9092 28.7745 66.1911 29.0005 66.2845 29.3775C66.411 29.8818 66.5449 30.4005 66.5573 30.9149C66.5945 32.5215 66.5796 34.1298 66.5796 35.7373C66.5796 38.3306 66.5945 40.9239 66.5606 43.5173Z" fill="black"/>
</svg>
