<svg width="43" height="26" viewBox="0 0 43 26" fill="none" xmlns="http://www.w3.org/2000/svg">
<path d="M30.3097 17.0657C30.1538 17.0328 30.0991 16.8809 29.873 16.8464C29.6469 16.8119 29.487 17.1339 29.487 17.1339C29.487 17.1339 29.4739 17.1487 29.4584 17.17C29.2878 17.1783 28.5108 17.2136 28.3664 17.2103C28.2039 17.2062 28.3794 17.0575 28.3794 17.0575L29.0519 16.6131C29.1425 16.6648 29.2364 16.7585 29.3605 16.7273C29.5441 16.6804 29.6127 16.4176 29.789 16.2861C29.9652 16.1547 30.2558 16.2409 30.2558 16.2409C30.1236 16.0635 29.8289 16.1005 29.6706 16.1111C29.5114 16.1218 29.4184 15.9896 29.1915 16.0167C29.0487 16.0339 28.9679 16.1801 28.9279 16.2869L27.8138 17.1355C27.8138 17.1355 25.9129 16.6106 25.8256 16.503C25.7383 16.3954 26.0435 16.2836 26.1439 16.1826C26.2443 16.0816 26.29 16.0454 26.2606 15.9279C26.2312 15.8105 26.1145 15.8335 25.9488 15.7973C25.7831 15.7612 25.4061 15.6798 25.1498 15.5427C24.8935 15.4055 24.3589 15.0424 24.1932 14.8263C24.0275 14.6103 23.8929 13.9202 23.8504 13.8093C23.808 13.6984 23.8439 13.4659 23.9802 13.4298C24.1165 13.3936 24.1818 13.5407 24.221 13.6064C24.2602 13.6721 24.5148 14.1346 24.585 14.2603C24.6552 14.386 24.9 14.685 25.02 14.777C25.14 14.8682 25.251 14.9175 25.3775 14.8814C25.504 14.8452 25.5236 14.7902 25.5203 14.6719C25.5171 14.5544 25.1563 14.2209 25.1563 14.2209C25.1563 14.2209 24.8837 13.7978 24.8478 13.5834C24.8119 13.369 24.9613 13.2466 25.0984 13.194C25.2347 13.1414 25.3326 13.2564 25.3775 13.3443C25.4232 13.4322 25.4167 13.6943 25.6117 14.0837C25.8068 14.4731 26.0696 14.7803 26.2027 14.9142C26.3357 15.0481 26.6124 15.228 26.8719 15.2149C27.1315 15.2017 27.2164 15.0843 27.2033 14.9504C27.1902 14.8165 26.9633 14.6628 26.8393 14.561C26.7152 14.4599 26.4043 14.2767 26.2353 14.0574C26.0664 13.8381 25.979 13.5703 25.9823 13.3706C25.9864 13.171 26.0141 13.0503 26.1374 13.0043C26.2606 12.9582 26.4394 13.1414 26.521 13.2269C26.6018 13.3115 27.2808 14.0245 27.2808 14.0245C27.2808 14.0245 28.1191 14.9955 28.3982 15.2149C28.6773 15.4342 29.0087 15.5451 29.3988 15.5418C29.7889 15.5386 30.1783 15.1171 30.2174 14.9076C30.2566 14.6982 30.1611 14.6324 30.0599 14.6004C29.7253 14.4961 29.5776 14.7967 29.0609 14.6201C28.5443 14.4435 28.155 14.0673 27.986 13.9169C27.8171 13.7666 27.147 12.835 27.0858 12.7167C27.0237 12.5993 26.9364 12.4489 27.0009 12.3503C27.0662 12.2526 27.2188 12.3372 27.2865 12.4029C27.3551 12.4686 27.8016 12.9081 27.964 13.0355C28.1264 13.1628 28.781 13.5818 29.1254 13.691C29.4698 13.8003 29.9163 13.8266 30.0607 13.691C30.2052 13.5555 30.295 13.1579 30.2689 13.0404C30.2558 12.8441 29.7906 12.9287 29.7906 12.9287C29.7906 12.9287 29.4078 13.0535 29.0413 13.0043C28.6741 12.955 28.2684 12.7102 28.0407 12.5138C27.813 12.3175 27.3371 11.7663 27.2155 11.6373C27.0939 11.5083 27.0858 11.3038 27.1568 11.1929C27.2286 11.082 27.5143 11.2159 27.644 11.284C27.7738 11.3531 28.319 11.7153 28.319 11.7153C28.319 11.7153 28.9793 12.1014 29.1646 12.1729C29.3498 12.2452 29.7588 12.2452 29.9636 12.1269C30.1685 12.0094 30.2623 11.7088 30.2493 11.5124C30.2362 11.3161 30.1228 11.2701 29.8918 11.2701C29.6608 11.2701 29.3009 11.3489 29.0993 11.3095C28.8977 11.2701 28.381 11.0417 28.2023 10.9431C28.0236 10.8454 27.4294 10.3287 27.4294 10.3287C27.4294 10.3287 27.1666 10.0896 27.2539 9.92941C27.3412 9.76922 27.5012 9.91627 27.5787 9.96227C27.6571 10.0083 28.1084 10.2432 28.2284 10.2827C28.3484 10.3221 28.9564 10.5053 29.1123 10.525C29.2682 10.5447 29.6355 10.5546 29.7881 10.525C29.9408 10.4954 30.0322 10.4494 30.1195 10.3549C30.2068 10.2605 30.3048 9.97541 30.2044 9.81194C30.104 9.64846 29.8371 9.67475 29.7041 9.75279C29.571 9.83165 29.3107 9.98856 29.0479 9.98199C28.7851 9.97541 28.6226 9.90969 28.3851 9.81851C28.1476 9.72732 27.6187 9.37983 27.4816 9.30179C27.3445 9.22375 27.0564 9.00441 27.1698 8.79164C27.2833 8.57888 27.4873 8.74564 27.7159 8.85736C27.9444 8.96909 28.6561 9.17939 29.0903 9.13503C29.5237 9.09067 30.1334 8.65445 30.1946 8.52055C30.2566 8.38665 30.3342 8.05969 30.2109 7.95454C30.0877 7.85021 29.9612 7.94469 29.6779 8.11145C29.3956 8.27821 29.2495 8.48769 28.7165 8.49755C28.1835 8.50741 27.5926 8.13445 27.391 8.04655C27.1894 7.95865 27.1445 7.78203 27.2025 7.63416C27.2612 7.48712 27.5143 7.5783 27.6897 7.58816C27.8652 7.59802 28.6341 7.65799 28.9956 7.56844C29.5221 7.43783 30.0028 7.16263 30.1391 6.91454C30.2754 6.66645 30.3015 6.43068 30.1848 6.28692C30.0681 6.14315 29.8077 6.18259 29.7041 6.32635C29.6004 6.47011 29.0674 6.78392 28.7818 6.84964C28.4961 6.91536 28.2619 6.91536 27.8334 6.94082C27.4049 6.96711 27.2229 6.77077 27.2229 6.58758C27.2229 6.40439 27.4441 6.3781 27.7297 6.33867C28.0154 6.29924 28.3925 6.23434 28.8993 6.01172C29.4062 5.78909 30.1081 5.07029 30.264 4.73019C30.4199 4.39009 30.2901 3.94567 29.9783 3.90623C29.6665 3.8668 29.6012 4.24633 29.4845 4.44267C29.3678 4.639 28.9385 5.00539 28.8087 5.09658C28.6789 5.18776 28.1068 5.56729 27.613 5.6593C27.1192 5.75048 27.1584 5.60672 27.1584 5.60672C27.0417 5.3841 26.8466 5.50239 26.8466 5.50239C26.8466 5.50239 25.2094 6.23516 24.8715 6.41753C24.5336 6.5999 24.6633 6.78392 24.6633 6.78392C24.6633 6.78392 24.7931 7.07144 24.7801 7.34664C24.767 7.62102 24.4813 8.11802 24.052 8.13116C23.6235 8.14431 23.3762 7.76478 23.3501 7.35978C23.324 6.95397 23.6227 6.35264 24.039 5.95996C24.4552 5.56729 25.4812 5.34549 25.8974 5.30606C26.3128 5.26662 26.5993 5.01853 26.534 4.93967C26.4687 4.86081 26.2614 5.07029 25.9749 5.08343C25.6893 5.09658 25.5718 4.84766 25.5718 4.84766C25.5718 4.84766 26.663 4.84766 26.9233 4.78194C27.1829 4.71622 27.56 4.2718 27.3396 4.10175C27.1184 3.9317 26.8589 4.53303 26.534 4.66447C26.2092 4.79509 25.6632 4.66447 25.6632 4.66447C25.6632 4.66447 25.7929 4.37695 26.1439 4.28494C26.4949 4.19376 26.6246 4.3638 26.6246 4.3638C26.4687 3.77562 25.6632 3.99742 25.6632 3.99742C25.6632 3.99742 25.5465 3.68361 24.9221 3.64418C24.2985 3.60475 24.2724 3.90541 23.8953 3.95799C23.5183 4.01056 22.6351 4.15432 22.7519 4.19376C22.8604 4.2299 23.3738 4.58314 23.4448 4.63243C23.4309 4.63408 23.417 4.63654 23.4015 4.63818C22.7519 4.72937 22.4915 5.22637 22.4915 5.22637C22.4915 5.22637 23.4921 5.21323 23.0506 5.31756C22.609 5.42189 22.0761 5.80141 22.0761 5.80141C22.245 5.74884 22.427 5.94518 22.414 5.98461C22.4025 6.01993 21.8222 6.56376 21.6696 6.72888C21.517 6.56376 20.9367 6.01993 20.9253 5.98461C20.9122 5.94518 21.0942 5.74884 21.2631 5.80141C21.2631 5.80141 20.7302 5.42189 20.2886 5.31756C19.8471 5.21323 20.8477 5.22637 20.8477 5.22637C20.8477 5.22637 20.5882 4.72937 19.9377 4.63818C19.9222 4.63572 19.9083 4.63408 19.8944 4.63243C19.9654 4.58314 20.4788 4.2299 20.5874 4.19376C20.7041 4.15432 19.821 4.01056 19.4439 3.95799C19.0668 3.90541 19.0407 3.60475 18.4171 3.64418C17.7936 3.68361 17.676 3.99742 17.676 3.99742C17.676 3.99742 16.8705 3.7748 16.7146 4.3638C16.7146 4.3638 16.8444 4.19376 17.1953 4.28494C17.5463 4.37613 17.676 4.66447 17.676 4.66447C17.676 4.66447 17.13 4.79509 16.8052 4.66447C16.4803 4.53385 16.2208 3.9317 15.9996 4.10175C15.7784 4.2718 16.1555 4.71622 16.4159 4.78194C16.6754 4.84766 17.7675 4.84766 17.7675 4.84766C17.7675 4.84766 17.6507 5.09575 17.3643 5.08343C17.0786 5.07029 16.8705 4.86081 16.8052 4.93967C16.7399 5.01853 17.0264 5.26662 17.4418 5.30606C17.8572 5.34549 18.884 5.56729 19.3002 5.95996C19.7157 6.35264 20.0152 6.95397 19.9891 7.35978C19.963 7.7656 19.7165 8.14431 19.2872 8.13116C18.8587 8.11802 18.5722 7.62102 18.5591 7.34664C18.5461 7.07226 18.6759 6.78392 18.6759 6.78392C18.6759 6.78392 18.8056 6.60073 18.4677 6.41753C18.1298 6.23434 16.4926 5.50239 16.4926 5.50239C16.4926 5.50239 16.2975 5.38492 16.1808 5.60672C16.1808 5.60672 16.22 5.75048 15.7262 5.6593C15.2324 5.56811 14.6603 5.18858 14.5305 5.09658C14.4007 5.00539 13.9714 4.639 13.8547 4.44267C13.738 4.24633 13.6727 3.8668 13.3609 3.90623C13.0491 3.94567 12.9194 4.39009 13.0752 4.73019C13.2311 5.07029 13.933 5.78991 14.4399 6.01172C14.9467 6.23434 15.3238 6.29924 15.6095 6.33867C15.8951 6.3781 16.1163 6.40439 16.1163 6.58758C16.1163 6.77077 15.9343 6.96711 15.5058 6.94082C15.0773 6.91454 14.8431 6.91454 14.5574 6.84964C14.2718 6.78392 13.7388 6.47011 13.6351 6.32635C13.5315 6.18259 13.2711 6.14315 13.1544 6.28692C13.0377 6.43068 13.0638 6.66645 13.2001 6.91454C13.3364 7.16345 13.8172 7.43783 14.3436 7.56844C14.7052 7.65799 15.474 7.59802 15.6495 7.58816C15.825 7.5783 16.078 7.48712 16.1367 7.63416C16.1955 7.78121 16.1498 7.95783 15.9482 8.04655C15.7466 8.13445 15.1557 8.50741 14.6227 8.49755C14.0898 8.48769 13.9437 8.27821 13.6613 8.11145C13.3789 7.94469 13.2515 7.85021 13.1283 7.95454C13.0051 8.05887 13.0826 8.38583 13.1446 8.52055C13.2067 8.65445 13.8155 9.09149 14.2489 9.13503C14.6823 9.17939 15.3948 8.96909 15.6234 8.85736C15.8519 8.74564 16.0551 8.5797 16.1694 8.79164C16.2828 9.00441 15.9947 9.22375 15.8576 9.30179C15.7205 9.37983 15.1916 9.7265 14.9541 9.81851C14.7166 9.90969 14.5542 9.97541 14.2914 9.98199C14.0285 9.98856 13.7682 9.83165 13.6351 9.75279C13.5021 9.67393 13.2352 9.64846 13.1348 9.81194C13.0344 9.97541 13.1316 10.2596 13.2197 10.3549C13.307 10.4494 13.3985 10.4954 13.5511 10.525C13.7037 10.5546 14.071 10.5447 14.2269 10.525C14.3828 10.5053 14.99 10.3221 15.1108 10.2827C15.2308 10.2432 15.6829 10.0083 15.7605 9.96227C15.8388 9.91627 15.998 9.76922 16.0853 9.92941C16.1726 10.0896 15.9098 10.3287 15.9098 10.3287C15.9098 10.3287 15.3157 10.8454 15.1369 10.9431C14.9582 11.0409 14.4415 11.2701 14.2399 11.3095C14.0383 11.3489 13.6776 11.2701 13.4474 11.2701C13.2164 11.2701 13.103 11.3161 13.0899 11.5124C13.0769 11.7088 13.1716 12.0094 13.3756 12.1269C13.5805 12.2444 13.9894 12.2444 14.1746 12.1729C14.3599 12.1006 15.0202 11.7153 15.0202 11.7153C15.0202 11.7153 15.5646 11.3522 15.6952 11.284C15.825 11.215 16.1106 11.0811 16.1824 11.1929C16.2543 11.3038 16.2453 11.5083 16.1237 11.6373C16.0021 11.7663 15.5262 12.3175 15.2985 12.5138C15.0708 12.7102 14.6652 12.955 14.2979 13.0043C13.9306 13.0535 13.5486 12.9287 13.5486 12.9287C13.5486 12.9287 13.0834 12.8441 13.0703 13.0404C13.0442 13.1579 13.134 13.5555 13.2785 13.691C13.4229 13.8266 13.8694 13.8003 14.2138 13.691C14.5582 13.5818 15.2128 13.1628 15.3752 13.0355C15.5377 12.9081 15.9841 12.4678 16.0527 12.4029C16.1212 12.3372 16.2738 12.2526 16.3383 12.3503C16.4036 12.4481 16.3155 12.5993 16.2534 12.7167C16.1914 12.8342 15.5221 13.7666 15.3532 13.9169C15.1843 14.0673 14.7949 14.4435 14.2783 14.6201C13.7617 14.7967 13.6139 14.4961 13.2793 14.6004C13.1781 14.6324 13.0826 14.6982 13.1218 14.9076C13.1609 15.1171 13.5503 15.5386 13.9404 15.5418C14.3305 15.5451 14.6619 15.4342 14.941 15.2149C15.2202 14.9955 16.0584 14.0245 16.0584 14.0245C16.0584 14.0245 16.7374 13.3115 16.8182 13.2269C16.8999 13.1414 17.0778 12.9591 17.2018 13.0043C17.3251 13.0503 17.3537 13.171 17.3569 13.3706C17.361 13.5703 17.2729 13.8381 17.1039 14.0574C16.935 14.2767 16.624 14.4599 16.4999 14.561C16.3759 14.662 16.149 14.8156 16.1359 14.9504C16.1229 15.0843 16.2077 15.2017 16.4673 15.2149C16.7268 15.228 17.0035 15.0481 17.1365 14.9142C17.2696 14.7803 17.5332 14.4731 17.7275 14.0837C17.9225 13.6943 17.916 13.4331 17.9617 13.3443C18.0074 13.2564 18.1045 13.1414 18.2408 13.194C18.3771 13.2466 18.5265 13.369 18.4914 13.5834C18.4555 13.7978 18.1829 14.2209 18.1829 14.2209C18.1829 14.2209 17.8221 14.5544 17.8189 14.6719C17.8156 14.7894 17.8352 14.8452 17.9617 14.8814C18.0882 14.9175 18.1992 14.8682 18.3192 14.777C18.4392 14.6858 18.6848 14.386 18.7542 14.2603C18.8244 14.1346 19.0791 13.6721 19.1182 13.6064C19.1574 13.5407 19.2219 13.3936 19.359 13.4298C19.4953 13.4659 19.5312 13.6984 19.4888 13.8093C19.4463 13.9202 19.3117 14.6103 19.146 14.8263C18.9803 15.0424 18.4457 15.4055 18.1894 15.5427C17.9331 15.6798 17.5561 15.762 17.3904 15.7973C17.2247 15.8335 17.108 15.8105 17.0786 15.9279C17.0492 16.0454 17.0949 16.0816 17.1953 16.1826C17.2957 16.2836 17.6018 16.3954 17.5136 16.503C17.4263 16.6106 15.5254 17.1355 15.5254 17.1355L14.4113 16.2869C14.3713 16.181 14.2914 16.0339 14.1477 16.0167C13.9208 15.9896 13.8278 16.1218 13.6686 16.1111C13.5095 16.1005 13.2156 16.0635 13.0834 16.2409C13.0834 16.2409 13.3748 16.1547 13.5503 16.2861C13.7266 16.4176 13.7951 16.6804 13.9788 16.7273C14.1028 16.7585 14.1975 16.6648 14.2873 16.6131L14.9598 17.0575C14.9598 17.0575 15.1353 17.2062 14.9729 17.2103C14.8284 17.2136 14.0514 17.1783 13.8808 17.17C13.8653 17.1487 13.8522 17.1339 13.8522 17.1339C13.8522 17.1339 13.6923 16.8119 13.4662 16.8464C13.2401 16.8809 13.1854 17.0328 13.0295 17.0657C12.8736 17.0986 12.5806 17.1405 12.499 17.3475C12.499 17.3475 12.7569 17.1865 12.961 17.2661C13.165 17.3458 13.3005 17.5816 13.4899 17.5767C13.6041 17.5742 13.6694 17.4806 13.7347 17.4083L14.9525 17.3976C14.9525 17.3976 15.1149 17.4502 14.9525 17.5348C14.8349 17.5964 14.5387 17.7213 14.3844 17.7853C14.3558 17.7771 14.3322 17.7722 14.3322 17.7722C14.3322 17.7722 14.009 17.6177 13.8522 17.7853C13.6955 17.9529 13.7453 18.1065 13.6425 18.2289C13.5397 18.3513 13.3348 18.5666 13.3968 18.7793C13.3968 18.7793 13.5013 18.4926 13.7119 18.4286C13.9216 18.3645 14.1722 18.4663 14.3191 18.3456C14.4203 18.2618 14.3983 18.1254 14.413 18.0211L15.4813 17.5068L16.3326 17.8092C16.3375 17.8165 16.344 17.8239 16.3547 17.8322C16.4681 17.9192 16.3563 18.1509 16.5032 18.2717C16.6501 18.3924 16.9007 18.2914 17.1104 18.3546C17.3202 18.4187 17.4255 18.7054 17.4255 18.7054C17.4883 18.4926 17.2835 18.2774 17.1798 18.155C17.077 18.0326 17.1268 17.879 16.97 17.7114C16.8403 17.5734 16.5987 17.6539 16.5171 17.6868L15.8225 17.428L16.1098 17.3319C16.1098 17.3319 17.8221 16.8053 17.9095 16.8612C17.9968 16.917 18.3706 17.2859 18.3706 17.2859C18.3706 17.2859 18.5526 17.4231 18.6236 17.3836C18.6955 17.3442 19.2733 16.2984 19.4227 16.0627C19.572 15.8269 20.2903 14.9183 20.6314 15.1278C20.9726 15.3373 20.8657 16.066 20.7351 16.3313C20.6053 16.5958 20.0372 17.3384 19.7932 17.5085C19.5492 17.6785 19.3998 17.9044 19.1631 17.9463C18.9256 17.9891 18.6236 17.9529 18.5265 17.9463C18.4294 17.9398 18.0915 17.9595 18.0719 18.1624C18.0523 18.3653 18.2376 18.5255 18.4816 18.5682C18.7257 18.6109 18.9787 18.7054 19.1443 18.6339C19.31 18.5616 19.5475 18.3037 19.6643 18.2092C19.781 18.1148 19.9564 17.9833 20.0674 18.0852C20.1776 18.1862 20.1262 18.376 20.0022 18.5296C19.8789 18.6832 19.4659 19.0463 19.2358 19.1638C19.0048 19.2813 18.8881 19.2394 18.7354 19.255C18.5828 19.2714 18.4204 19.2911 18.4237 19.425C18.4269 19.5589 18.5338 19.7356 18.6897 19.7848C18.8456 19.8341 19.115 19.8538 19.3133 19.7848C19.5116 19.7158 19.8944 19.4316 19.9826 19.3404C20.0699 19.2492 20.278 18.9806 20.4111 19.0858C20.5441 19.1901 20.4796 19.4653 20.3654 19.6419C20.2519 19.8185 20.0438 20.1783 19.8193 20.263C19.5949 20.3476 19.3288 20.3509 19.2349 20.3739C19.1411 20.3969 19.1492 20.4576 19.1958 20.5562C19.2423 20.6548 19.492 20.9095 19.7165 20.9292C19.9409 20.9489 20.2748 20.6515 20.3335 20.5562C20.3931 20.4609 20.6396 20.0387 20.6714 20.0132C20.7024 19.9886 20.7849 19.7388 20.944 19.7972C21.1032 19.8563 21.1521 20.0362 21.1456 20.2096C21.1391 20.3829 21.0648 20.6704 20.9701 20.8175C20.8763 20.9645 20.3858 21.3933 20.3858 21.3933L21.6655 23.3945H21.6729L22.9526 21.3933C22.9526 21.3933 22.4621 20.9653 22.3683 20.8175C22.2744 20.6704 22.1993 20.3829 22.1928 20.2096C22.1862 20.0362 22.2352 19.8563 22.3944 19.7972C22.5535 19.738 22.636 19.9878 22.667 20.0132C22.6988 20.0379 22.9453 20.4609 23.0049 20.5562C23.0645 20.6515 23.3983 20.9489 23.6219 20.9292C23.8464 20.9095 24.0961 20.6548 24.1426 20.5562C24.1883 20.4576 24.1973 20.3969 24.1035 20.3739C24.0096 20.3509 23.7427 20.3476 23.5191 20.263C23.2946 20.1783 23.0873 19.8185 22.973 19.6419C22.8596 19.4653 22.7943 19.1909 22.9273 19.0858C23.0604 18.9814 23.2685 19.2492 23.3558 19.3404C23.4432 19.4316 23.8268 19.7167 24.0251 19.7848C24.2234 19.8538 24.4928 19.8341 24.6487 19.7848C24.8045 19.7356 24.9115 19.5589 24.9147 19.425C24.918 19.2911 24.7556 19.2714 24.603 19.255C24.4503 19.2386 24.3336 19.2813 24.1026 19.1638C23.8717 19.0463 23.4595 18.6832 23.3362 18.5296C23.213 18.376 23.1608 18.1862 23.2709 18.0852C23.3811 17.9841 23.5566 18.1148 23.6741 18.2092C23.7909 18.3037 24.0284 18.5625 24.194 18.6339C24.3597 18.7062 24.6127 18.6109 24.8568 18.5682C25.1008 18.5255 25.2853 18.3653 25.2665 18.1624C25.2469 17.9595 24.909 17.9398 24.8119 17.9463C24.7148 17.9529 24.412 17.9891 24.1753 17.9463C23.9378 17.9036 23.7892 17.6777 23.5452 17.5085C23.3011 17.3384 22.7331 16.5958 22.6033 16.3313C22.4735 16.0668 22.3658 15.3373 22.707 15.1278C23.0481 14.9183 23.7664 15.8277 23.9157 16.0627C24.0651 16.2984 24.6438 17.3442 24.7148 17.3836C24.7866 17.4231 24.9678 17.2859 24.9678 17.2859C24.9678 17.2859 25.3416 16.9162 25.4289 16.8612C25.5163 16.8053 27.2286 17.3319 27.2286 17.3319L27.5159 17.428L26.8213 17.6868C26.7405 17.6539 26.4981 17.5734 26.3683 17.7114C26.2116 17.879 26.2614 18.0326 26.1586 18.155C26.0557 18.2774 25.8509 18.4926 25.9129 18.7054C25.9129 18.7054 26.0174 18.4187 26.228 18.3546C26.4377 18.2905 26.6883 18.3924 26.8352 18.2717C26.9821 18.1509 26.8703 17.9184 26.9837 17.8322C26.9944 17.8239 27.0009 17.8165 27.0058 17.8092L27.8571 17.5068L28.9254 18.0211C28.9393 18.1263 28.9181 18.2626 29.0193 18.3456C29.1662 18.4663 29.4168 18.3653 29.6265 18.4286C29.8363 18.4926 29.9416 18.7793 29.9416 18.7793C30.0044 18.5666 29.7996 18.3513 29.6959 18.2289C29.5931 18.1065 29.6429 17.9529 29.4861 17.7853C29.3294 17.6177 29.0062 17.7722 29.0062 17.7722C29.0062 17.7722 28.9834 17.7763 28.954 17.7853C28.7997 17.7213 28.5035 17.5964 28.3859 17.5348C28.2235 17.4502 28.3859 17.3976 28.3859 17.3976L29.6037 17.4083C29.669 17.4814 29.7343 17.5742 29.8485 17.5767C30.0379 17.5808 30.1734 17.3458 30.3774 17.2661C30.5815 17.1865 30.8402 17.3475 30.8402 17.3475C30.7586 17.1413 30.4656 17.0986 30.3097 17.0657ZM24.8054 4.20444C25.0388 4.20444 25.2273 4.28823 25.2273 4.39091C25.2273 4.4936 25.038 4.57739 24.8054 4.57739C24.5719 4.57739 24.3834 4.4936 24.3834 4.39091C24.3834 4.28823 24.5728 4.20444 24.8054 4.20444ZM18.5347 4.57739C18.3012 4.57739 18.1127 4.4936 18.1127 4.39091C18.1127 4.28823 18.3021 4.20444 18.5347 4.20444C18.7681 4.20444 18.9566 4.28823 18.9566 4.39091C18.9566 4.4936 18.7681 4.57739 18.5347 4.57739Z" fill="#010101"/>
<path d="M42.1284 0.875488H1.21094V24.9723H42.1284V0.875488Z" stroke="#010101" stroke-miterlimit="10"/>
</svg>
