<svg width="43" height="26" viewBox="0 0 43 26" fill="none" xmlns="http://www.w3.org/2000/svg">
<path d="M19.3508 15.4788H1.18359V25.4788H19.3508V15.4788Z" stroke="black" stroke-miterlimit="10"/>
<path d="M42.1008 15.4788H23.9336V25.4788H42.1008V15.4788Z" stroke="black" stroke-miterlimit="10"/>
<path d="M19.3508 0.563477H1.18359V10.5635H19.3508V0.563477Z" stroke="black" stroke-miterlimit="10"/>
<path d="M42.1008 0.563477H23.9336V10.5635H42.1008V0.563477Z" stroke="black" stroke-miterlimit="10"/>
<path d="M42.101 10.5635V15.4787H23.9338V25.4787H19.3508V15.4787H1.18359V10.5635H19.3508V0.563477H23.9338V10.5635H42.101Z" stroke="black" stroke-miterlimit="10"/>
<path d="M26.1641 0.575439V7.69408L37.3121 0.575439" stroke="black" stroke-miterlimit="10"/>
<path d="M42.1004 3.28711L33.4297 8.88033H42.1004" stroke="black" stroke-miterlimit="10"/>
<path d="M17.1207 0.575439V7.69408L5.97266 0.575439" stroke="black" stroke-miterlimit="10"/>
<path d="M1.18359 3.28711L9.85429 8.88033H1.18359" stroke="black" stroke-miterlimit="10"/>
<path d="M26.1641 25.4668V18.3481L37.3121 25.4668" stroke="black" stroke-miterlimit="10"/>
<path d="M42.1004 22.7551L33.4297 17.1619H42.1004" stroke="black" stroke-miterlimit="10"/>
<path d="M17.1207 25.4668V18.3481L5.97266 25.4668" stroke="black" stroke-miterlimit="10"/>
<path d="M1.18359 22.7551L9.85429 17.1619H1.18359" stroke="black" stroke-miterlimit="10"/>
</svg>
